<?xml version="1.0" standalone="no"?>
<!DOCTYPE svg PUBLIC "-//W3C//DTD SVG 20010904//EN"
 "http://www.w3.org/TR/2001/REC-SVG-20010904/DTD/svg10.dtd">
<svg version="1.0" xmlns="http://www.w3.org/2000/svg"
 width="500.000000pt" height="500.000000pt" viewBox="0 0 500.000000 500.000000"
 preserveAspectRatio="xMidYMid meet">
<metadata>
Created by potrace 1.14, written by Peter Selinger 2001-2017
</metadata>
<g transform="translate(0.000000,500.000000) scale(0.100000,-0.100000)"
fill="#000000" stroke="none">
<path d="M2430 4955 c-9 -22 -15 -27 -37 -24 -3 0 -10 -6 -15 -15 -5 -9 -16
-16 -24 -16 -9 0 -12 -5 -8 -12 5 -7 3 -8 -5 -3 -8 4 -21 -1 -32 -14 -11 -12
-29 -21 -40 -21 -11 0 -22 -6 -25 -14 -3 -8 -12 -12 -19 -10 -7 3 -20 -5 -29
-18 -10 -15 -16 -17 -16 -8 0 13 -2 13 -9 1 -5 -8 -14 -10 -21 -6 -9 5 -11 4
-6 -3 4 -7 2 -12 -4 -12 -6 0 -8 -5 -5 -10 4 -6 3 -10 -2 -9 -15 2 -53 -13
-53 -22 0 -5 -6 -9 -14 -9 -8 0 -22 -8 -32 -17 -9 -10 -24 -18 -32 -20 -29 -4
-61 -26 -55 -36 4 -6 0 -8 -10 -4 -10 3 -17 2 -17 -4 0 -6 -4 -8 -9 -4 -6 3
-13 0 -18 -7 -12 -20 -73 -49 -85 -41 -7 3 -8 1 -4 -5 6 -11 -5 -16 -26 -13
-4 0 -5 -6 -2 -14 4 -10 0 -13 -15 -10 -14 2 -21 -1 -21 -11 0 -8 -5 -14 -11
-14 -5 0 -7 6 -4 13 4 6 -1 3 -9 -7 -9 -11 -16 -16 -16 -12 0 4 -7 0 -16 -8
-8 -9 -20 -13 -26 -10 -7 4 -8 2 -4 -4 4 -7 1 -12 -8 -12 -9 0 -16 -4 -16 -10
0 -5 -9 -10 -21 -10 -13 0 -18 -4 -13 -12 5 -7 2 -9 -9 -5 -9 3 -18 -1 -22
-11 -5 -13 -8 -14 -14 -3 -6 10 -10 9 -15 -4 -3 -9 -10 -13 -16 -10 -5 3 -10
1 -10 -5 0 -6 -6 -8 -12 -4 -7 4 -10 4 -6 -1 4 -4 3 -14 -3 -22 -10 -11 -15
-11 -27 -1 -10 8 -13 9 -9 1 4 -7 -5 -15 -23 -22 -17 -5 -30 -13 -30 -16 0 -3
5 -3 12 1 7 5 8 3 4 -5 -5 -7 -14 -10 -22 -7 -8 3 -14 0 -14 -6 0 -6 -3 -8 -6
-5 -4 4 -14 -2 -23 -12 -9 -10 -24 -17 -33 -15 -10 1 -16 -3 -15 -9 1 -7 -4
-11 -10 -10 -7 2 -13 -2 -13 -7 0 -5 -6 -9 -12 -7 -7 1 -12 -4 -10 -12 3 -12
0 -12 -12 -1 -13 10 -16 10 -16 -4 0 -10 -5 -14 -10 -11 -6 3 -13 0 -16 -9 -3
-8 -11 -13 -18 -10 -6 2 -22 -5 -34 -17 -13 -11 -29 -18 -37 -15 -9 3 -12 0
-8 -10 3 -9 -2 -14 -16 -14 -12 0 -21 -5 -21 -12 0 -6 -3 -9 -6 -5 -4 3 -13
-1 -21 -9 -9 -8 -22 -13 -30 -10 -8 3 -12 2 -9 -3 7 -11 -41 -44 -54 -36 -5 3
-15 -3 -22 -13 -7 -11 -21 -18 -30 -16 -10 1 -16 -3 -15 -9 1 -6 -3 -11 -9
-12 -6 0 -18 -8 -28 -17 -20 -21 -30 -23 -21 -5 4 6 0 4 -9 -7 -8 -10 -19 -15
-25 -11 -7 3 -11 -3 -12 -17 0 -13 -3 -17 -6 -10 -4 10 -9 9 -19 -5 -13 -17
-14 -17 -7 2 5 17 3 16 -15 -5 -12 -14 -21 -21 -22 -16 0 6 -7 1 -16 -10 -8
-10 -13 -12 -9 -4 4 8 -3 4 -15 -10 -12 -14 -19 -19 -15 -11 5 9 -1 8 -19 -4
-14 -10 -26 -22 -26 -27 0 -5 -4 -6 -10 -3 -6 3 -10 1 -10 -5 0 -6 -4 -8 -10
-5 -5 3 -10 1 -10 -6 0 -7 -3 -10 -6 -6 -4 3 -13 -1 -21 -9 -8 -8 -18 -12 -23
-9 -4 3 -11 -2 -14 -10 -3 -8 -11 -14 -18 -13 -7 2 -12 -3 -10 -11 3 -12 1
-12 -14 0 -10 8 -15 9 -11 3 4 -7 0 -15 -9 -18 -10 -4 -13 -2 -8 6 4 7 3 8 -4
4 -7 -4 -12 -14 -12 -22 0 -8 -5 -14 -11 -14 -5 0 -7 6 -3 13 4 7 3 9 -2 4 -5
-5 -9 -14 -9 -20 0 -7 -8 -11 -18 -11 -9 1 -14 -2 -11 -7 3 -5 -2 -9 -11 -9
-9 0 -13 -4 -10 -10 3 -5 3 -16 -1 -22 -11 -17 -12 -48 -2 -42 4 3 8 1 8 -5 0
-5 -5 -13 -10 -16 -6 -4 -8 -11 -4 -16 3 -5 0 -17 -7 -25 -10 -12 -9 -13 3 -9
9 4 15 0 15 -10 0 -8 -5 -15 -10 -15 -5 0 -3 -8 4 -17 10 -11 10 -14 2 -9 -7
4 -13 3 -13 -3 0 -5 6 -12 13 -15 8 -3 6 -9 -7 -20 -18 -15 -18 -16 -2 -16 10
0 16 -5 13 -12 -2 -7 -10 -12 -17 -10 -10 2 -11 0 -2 -11 9 -10 9 -17 -1 -26
-9 -10 -9 -11 4 -6 10 4 16 0 16 -9 0 -8 -4 -13 -9 -10 -13 8 -10 -10 5 -25 7
-9 7 -11 1 -8 -7 4 -15 0 -18 -9 -3 -8 -2 -13 2 -10 9 5 7 -198 -2 -213 -5 -7
-1 -8 10 -4 15 5 14 3 -2 -23 -11 -15 -14 -25 -8 -21 7 4 11 -2 12 -18 0 -15
-5 -22 -12 -18 -6 3 -2 -4 8 -16 20 -22 20 -22 0 -15 -19 7 -19 7 0 -15 18
-20 18 -21 2 -15 -15 6 -17 4 -8 -12 5 -10 6 -28 2 -39 -9 -24 -1 -77 14 -87
7 -5 4 -8 -8 -8 -15 0 -16 -3 -6 -15 9 -11 9 -15 1 -15 -8 0 -9 -5 -2 -19 6
-10 8 -21 4 -25 -11 -11 -5 -116 7 -131 10 -12 9 -16 -4 -21 -13 -5 -14 -9 -5
-20 9 -11 9 -14 0 -14 -9 0 -9 -5 -1 -20 8 -15 8 -20 -2 -20 -9 0 -9 -3 2 -10
8 -5 10 -10 4 -10 -13 0 -13 -42 1 -52 6 -5 5 -8 -2 -8 -9 0 -10 -7 -3 -26 7
-16 7 -23 0 -19 -6 3 -10 1 -10 -4 0 -6 5 -11 11 -11 5 0 8 -4 5 -8 -3 -5 -6
-86 -7 -181 -1 -124 2 -175 11 -186 11 -13 10 -14 -3 -10 -13 5 -14 1 -7 -28
4 -19 10 -39 14 -45 3 -6 -2 -15 -11 -21 -17 -10 -17 -10 2 -11 19 -1 19 -1 1
-11 -15 -9 -16 -13 -5 -20 12 -8 12 -11 -1 -19 -14 -9 -7 -15 15 -10 6 1 4 -4
-2 -11 -7 -7 -13 -24 -13 -38 0 -21 2 -23 11 -11 9 12 10 12 5 -3 -3 -10 -6
-21 -6 -23 0 -3 -4 -3 -9 0 -5 4 -7 -3 -4 -14 3 -11 9 -18 13 -15 6 4 7 -14 1
-48 0 -5 -5 -5 -11 -2 -6 3 -7 -1 -4 -9 3 -9 10 -13 15 -10 5 3 6 -2 3 -10 -3
-9 -9 -14 -14 -11 -4 2 -5 -7 -2 -20 2 -14 8 -25 13 -25 5 0 9 -5 9 -11 0 -6
-6 -9 -13 -6 -10 4 -13 -2 -9 -19 2 -14 9 -21 16 -17 7 5 7 2 -1 -8 -7 -9 -8
-20 -3 -29 5 -8 7 -17 5 -21 -3 -3 -7 -27 -9 -53 -4 -35 -2 -45 7 -40 7 4 3
-3 -7 -15 -20 -22 -20 -22 0 -15 16 6 17 5 6 -7 -13 -14 -17 -33 -4 -25 4 2 9
-5 9 -17 2 -18 0 -19 -8 -7 -8 12 -9 11 -6 -5 2 -11 9 -19 16 -17 7 1 10 -2 6
-8 -3 -6 -11 -8 -16 -4 -13 7 -7 -19 6 -28 6 -4 10 -13 10 -20 0 -7 8 -12 18
-10 9 2 17 -2 17 -8 0 -5 7 -10 16 -10 8 0 12 -5 9 -10 -4 -6 -3 -10 2 -9 20
3 34 -2 28 -11 -3 -5 0 -7 8 -4 8 3 18 0 22 -5 3 -6 11 -8 17 -5 7 5 9 1 5 -9
-4 -12 -2 -14 10 -10 11 4 14 2 9 -5 -6 -10 17 -17 46 -14 3 1 12 -6 20 -16
12 -16 11 -16 -7 -2 -18 14 -19 14 -7 -2 8 -9 19 -15 26 -12 8 3 16 -2 19 -10
4 -9 14 -16 22 -16 10 0 13 -5 9 -13 -5 -8 -2 -8 9 2 15 12 17 11 17 -2 0 -10
7 -15 20 -12 13 3 20 -2 20 -12 0 -11 6 -14 22 -10 23 6 23 6 3 -9 -19 -15
-19 -15 6 -9 17 4 30 1 38 -9 7 -9 17 -14 21 -11 5 3 15 -4 24 -16 9 -13 19
-18 27 -14 8 6 10 4 5 -4 -5 -8 -3 -11 7 -9 9 2 16 -1 15 -6 0 -13 24 -26 50
-26 12 0 22 -6 22 -14 0 -8 11 -17 25 -20 17 -4 23 -11 18 -19 -4 -7 2 -5 12
3 11 9 16 10 11 3 -4 -8 -2 -13 4 -13 6 0 9 -4 6 -9 -3 -4 6 -7 19 -6 13 2 23
-1 22 -7 -1 -6 4 -13 12 -16 9 -3 11 0 6 9 -5 8 -4 11 1 6 5 -5 9 -13 9 -18 0
-5 3 -9 8 -9 14 1 66 -34 62 -41 -3 -4 2 -10 11 -13 10 -4 13 -2 9 7 -4 6 0 4
8 -5 11 -14 16 -15 27 -5 8 7 10 7 7 1 -4 -6 3 -20 15 -30 12 -11 18 -13 14
-7 -5 9 -2 11 8 7 9 -3 13 -11 9 -18 -4 -6 2 -4 12 4 11 9 16 10 11 3 -4 -8
-2 -13 4 -13 6 0 8 -6 4 -12 -4 -7 -4 -10 1 -6 4 4 17 1 29 -7 11 -8 28 -15
38 -15 10 0 18 -4 18 -8 0 -4 14 -13 31 -19 21 -8 28 -16 23 -25 -4 -7 -3 -10
1 -5 5 4 18 -1 29 -10 20 -18 20 -17 6 2 -15 20 -14 20 8 1 12 -11 22 -15 22
-10 0 5 7 1 15 -10 7 -10 18 -15 24 -12 5 4 13 1 17 -5 5 -8 3 -9 -6 -4 -9 5
-11 4 -6 -3 4 -7 13 -12 21 -12 8 0 26 -11 40 -24 15 -14 33 -22 41 -19 8 3
14 0 14 -6 0 -6 9 -11 20 -11 11 0 20 -5 20 -11 0 -5 -5 -7 -12 -3 -6 4 -8 3
-5 -3 4 -6 18 -9 32 -8 16 2 30 -4 40 -18 8 -12 15 -18 15 -13 0 4 8 0 18 -11
9 -10 15 -14 12 -8 -3 6 2 3 11 -7 9 -9 19 -14 23 -11 3 4 6 1 6 -6 0 -7 4 -9
10 -6 5 3 10 1 10 -5 0 -6 4 -9 9 -6 5 3 11 -3 14 -13 4 -15 11 -18 28 -14 18
5 21 3 15 -12 -6 -16 -4 -16 11 -4 9 8 14 9 10 2 -4 -6 -3 -14 2 -17 5 -4 12
-2 16 4 4 6 11 5 19 -3 8 -6 11 -16 8 -21 -3 -5 2 -7 11 -3 10 3 17 3 17 -2 0
-5 12 -17 28 -27 19 -13 24 -13 17 -3 -5 8 -3 7 7 -3 12 -13 18 -15 21 -6 3 8
6 6 6 -4 1 -16 12 -23 34 -19 4 0 7 -5 7 -13 0 -9 9 -13 26 -11 16 1 30 -4 37
-16 7 -11 17 -19 24 -19 7 0 13 -4 13 -10 0 -5 9 -10 20 -10 10 0 34 -14 51
-31 20 -20 29 -25 25 -13 -7 17 -6 17 13 0 11 -10 24 -15 30 -12 5 4 13 1 17
-5 4 -8 3 -9 -4 -5 -7 4 -12 2 -12 -5 0 -6 8 -9 20 -6 11 3 17 1 14 -4 -3 -5
2 -12 10 -15 9 -3 16 -12 16 -20 0 -10 14 -14 50 -14 28 0 50 4 50 8 0 5 7 17
16 28 14 17 15 17 10 1 -3 -11 -2 -16 4 -12 6 3 10 12 10 20 0 8 5 17 12 21 7
5 8 3 3 -7 -5 -8 1 -5 13 5 12 11 22 15 22 10 0 -5 5 -2 10 6 5 8 15 15 22 16
34 3 39 5 34 13 -4 5 7 12 24 16 18 4 27 11 24 17 -5 7 2 9 19 6 19 -4 24 -1
19 10 -4 12 0 14 16 10 12 -3 20 -2 19 2 -1 4 1 7 5 7 4 -1 15 8 23 20 10 14
23 20 36 18 15 -3 19 0 15 11 -3 8 -2 12 3 9 5 -3 12 -1 16 5 3 5 15 10 26 10
11 0 22 6 25 14 3 9 12 12 22 9 11 -5 14 -2 9 10 -4 12 -1 15 14 12 10 -2 19
1 19 7 0 5 7 7 16 4 8 -3 13 -2 10 3 -3 5 2 15 11 22 9 8 14 9 10 3 -3 -6 0
-11 7 -11 8 0 12 6 9 13 -3 9 2 12 16 9 12 -2 19 0 16 6 -4 5 -1 9 5 9 6 0 9
4 5 9 -3 6 4 8 15 6 11 -2 24 3 29 12 5 9 15 14 24 10 12 -4 14 -2 10 10 -4
11 -2 14 5 9 6 -4 21 3 33 15 17 17 23 19 30 8 6 -10 9 -7 9 11 0 20 2 22 10
10 6 -10 10 -11 10 -2 0 6 5 12 11 12 7 0 18 8 26 18 9 11 12 12 8 2 -4 -8 3
-4 14 10 16 19 20 20 14 6 -4 -13 -3 -17 5 -12 7 4 12 14 12 23 0 9 3 13 7 10
3 -4 13 -1 21 6 13 10 14 9 8 -1 -7 -12 -4 -12 15 -1 13 7 28 12 32 11 5 -1 7
1 4 5 -2 5 4 16 14 25 12 12 19 13 23 5 3 -9 5 -9 5 1 1 6 7 12 15 12 8 0 16
7 20 15 3 8 12 15 20 15 9 0 25 10 37 22 12 13 19 18 16 12 -3 -6 0 -11 8 -11
7 0 12 8 10 17 -2 9 3 17 10 17 8 0 12 -5 9 -11 -3 -6 1 -3 9 7 10 12 17 14
22 7 9 -14 25 -3 19 14 -3 7 2 16 11 20 11 4 14 2 9 -7 -4 -6 2 -4 13 6 11 9
23 14 27 10 4 -4 4 -1 1 8 -4 10 1 15 16 16 12 1 25 7 29 14 6 8 9 8 13 -2 4
-9 6 -8 6 5 1 11 6 16 15 13 9 -4 16 3 20 16 5 18 8 20 16 7 8 -13 10 -13 10
2 0 9 5 20 12 24 7 4 8 3 4 -4 -12 -20 5 -13 22 8 10 12 27 22 39 23 15 1 19
5 13 12 -6 8 -1 11 18 11 15 -1 26 4 25 11 -1 6 4 14 13 17 10 4 13 2 8 -7 -6
-9 -5 -9 8 0 8 7 19 9 24 5 5 -4 6 -3 2 2 -11 13 15 36 29 25 7 -7 14 -6 18 1
3 6 11 7 17 4 7 -4 8 -2 4 5 -6 9 -12 9 -24 -1 -15 -12 -16 -11 -3 4 7 10 17
15 22 12 5 -3 9 -1 9 5 0 6 8 7 17 4 13 -5 15 -3 9 12 -7 18 -6 18 15 -1 12
-10 19 -13 15 -6 -5 8 2 15 17 21 14 6 29 16 33 23 5 9 2 8 -12 -2 -18 -14
-18 -14 -5 2 10 13 18 15 32 8 15 -8 17 -7 13 4 -6 17 29 31 48 20 8 -5 7 0
-2 11 -14 17 -13 18 3 12 9 -3 17 -2 17 4 0 6 4 8 9 4 6 -3 15 4 21 15 10 18
14 19 28 8 14 -11 15 -11 9 5 -4 10 -3 16 2 12 5 -3 13 0 16 6 4 5 14 8 22 5
8 -3 12 -2 9 3 -3 5 6 17 20 26 18 12 24 13 19 4 -3 -8 -1 -7 7 2 7 9 21 15
31 13 14 -2 16 1 7 11 -9 11 -7 12 9 8 12 -3 21 -1 21 6 0 6 7 11 16 11 8 0
12 5 9 10 -3 6 -1 10 4 10 8 0 11 377 11 1261 -1 1083 -3 1260 -15 1255 -9 -3
-12 0 -8 10 3 8 2 14 -3 12 -16 -4 -54 13 -49 23 3 5 -2 6 -11 2 -10 -4 -15
-2 -11 3 3 6 -4 11 -15 11 -12 1 -24 6 -27 10 -3 4 -16 13 -28 20 -17 10 -23
10 -26 0 -3 -7 -6 -2 -6 10 -1 16 -6 21 -20 18 -12 -2 -21 3 -24 16 -3 13 -11
17 -21 13 -9 -3 -16 -1 -16 6 0 6 -4 8 -10 5 -5 -3 -10 2 -10 12 0 15 -2 16
-10 3 -7 -12 -10 -12 -10 -1 0 7 -6 11 -14 8 -11 -4 -13 -1 -9 10 4 10 2 14
-5 9 -6 -3 -13 -2 -17 4 -3 5 -15 15 -27 21 -16 9 -19 8 -12 -3 4 -7 -6 2 -23
20 -32 33 -49 42 -38 20 4 -7 -1 -4 -9 6 -9 11 -16 16 -16 12 0 -5 -6 -3 -13
3 -8 6 -18 7 -22 3 -5 -4 -5 1 -2 10 4 12 2 15 -10 11 -8 -3 -18 -1 -22 6 -4
7 -21 13 -37 14 -16 1 -29 8 -29 15 0 6 -11 19 -24 29 -18 12 -22 12 -16 2 8
-12 6 -12 -8 0 -9 7 -14 18 -11 23 3 5 0 9 -7 7 -30 -4 -45 2 -71 25 -14 14
-29 22 -32 19 -3 -4 -6 -1 -6 6 0 7 -4 10 -9 7 -5 -3 -12 1 -15 10 -4 9 -13
14 -21 10 -9 -3 -15 0 -15 9 0 7 -5 17 -12 21 -8 5 -9 2 -4 -11 5 -15 4 -16
-9 -5 -8 7 -12 16 -9 21 3 5 -2 6 -10 3 -9 -3 -16 -1 -16 6 0 6 -4 8 -10 5 -5
-3 -10 0 -10 8 0 7 -7 14 -15 15 -8 1 -22 3 -30 4 -8 1 -15 8 -15 16 0 8 -6
12 -15 9 -8 -4 -17 -1 -21 5 -5 7 -2 8 6 3 9 -5 11 -4 6 3 -4 7 -16 12 -27 12
-11 0 -22 7 -26 16 -3 9 -13 14 -24 11 -10 -3 -17 0 -16 7 1 6 -4 10 -10 9 -7
-2 -13 2 -13 8 0 6 -7 9 -15 6 -8 -4 -17 -1 -21 5 -5 7 -2 8 6 3 9 -6 11 -4 6
4 -5 7 -15 10 -23 7 -10 -4 -13 -2 -10 7 3 8 -1 14 -9 14 -7 0 -10 -5 -7 -11
4 -6 -3 -3 -14 7 -11 9 -23 14 -28 10 -4 -5 -5 -2 -1 5 4 7 1 12 -8 12 -9 0
-16 4 -16 10 0 5 -6 9 -12 7 -7 -1 -12 3 -11 8 1 6 -8 12 -19 12 -12 1 -26 7
-32 14 -8 9 -7 10 3 4 9 -5 12 -4 7 3 -4 6 -13 9 -21 5 -8 -3 -15 0 -15 7 0 9
-4 9 -17 -1 -9 -8 -14 -9 -11 -4 3 6 2 19 -3 30 l-8 20 0 -20 c-1 -17 -4 -16
-22 10 -12 17 -19 23 -16 14 3 -9 -1 -16 -8 -16 -7 0 -12 7 -11 16 1 9 -6 15
-16 15 -10 -1 -16 2 -13 6 3 4 -2 10 -10 14 -8 3 -15 0 -15 -7 0 -8 -4 -7 -9
3 -6 8 -7 18 -4 24 4 5 -3 7 -15 4 -12 -4 -22 -2 -22 2 0 10 -58 40 -77 40 -8
0 -11 5 -8 10 3 6 -4 10 -17 10 -19 0 -20 2 -8 11 12 9 11 10 -7 6 -16 -4 -23
0 -23 10 0 9 -6 13 -15 10 -8 -4 -17 -1 -21 5 -5 7 -2 8 7 3 8 -5 11 -4 6 0
-4 5 -17 10 -28 12 -25 4 -50 28 -41 39 4 5 -2 2 -12 -6 -13 -10 -17 -10 -12
-2 5 8 -1 12 -21 12 -22 0 -25 2 -13 10 12 8 11 10 -7 10 -13 0 -23 5 -23 11
0 5 -4 7 -10 4 -5 -3 -10 -1 -10 5 0 7 -7 9 -16 6 -8 -3 -12 -2 -9 4 3 6 -1
10 -10 10 -10 0 -13 5 -9 12 4 7 3 8 -5 4 -6 -4 -14 0 -17 8 -3 9 -10 13 -15
10 -9 -5 -63 21 -86 42 -7 7 -9 15 -5 20 4 5 -1 2 -11 -5 -15 -12 -17 -12 -11
3 5 13 -2 16 -45 16 -46 0 -53 -3 -61 -25z m100 -154 c0 -14 2 -14 10 -1 6 9
10 10 10 3 0 -6 17 -20 38 -30 20 -10 36 -24 34 -31 -1 -8 2 -11 9 -6 7 4 18
-1 26 -11 7 -11 13 -13 13 -6 0 7 5 9 10 6 6 -4 8 -10 5 -15 -3 -5 0 -12 6
-16 8 -4 9 -3 5 4 -4 7 -2 12 3 12 6 0 11 -4 11 -10 0 -5 7 -10 15 -10 8 0 15
-4 15 -10 0 -5 3 -9 8 -9 4 1 10 0 15 -1 4 -1 11 -3 17 -4 5 0 16 -10 25 -21
9 -11 14 -14 10 -7 -3 6 -1 12 4 12 6 0 11 -10 11 -22 0 -13 4 -18 8 -13 9 13
35 19 28 6 -3 -5 2 -15 11 -22 14 -12 16 -12 8 1 -8 13 -6 13 8 1 9 -7 15 -17
12 -21 -2 -4 7 -6 20 -4 15 1 25 -3 25 -11 0 -7 7 -16 16 -19 9 -4 13 -2 8 5
-10 17 50 -24 64 -44 12 -15 16 -16 30 -5 12 10 14 10 8 1 -4 -7 -2 -14 3 -14
6 -1 15 -2 20 -3 5 0 13 -5 18 -10 5 -5 3 -6 -4 -2 -7 4 -13 5 -13 2 0 -3 10
-10 21 -17 17 -9 20 -8 14 3 -3 7 0 5 8 -4 16 -20 32 -25 21 -6 -4 7 -3 8 5 4
6 -4 9 -11 6 -16 -5 -8 21 -20 55 -26 8 -2 22 -12 31 -23 9 -11 20 -17 23 -13
4 4 16 -4 28 -18 11 -14 17 -20 14 -14 -3 6 1 11 8 11 8 0 12 -6 9 -12 -2 -7
3 -15 12 -19 11 -4 14 -2 10 7 -4 6 3 1 15 -13 12 -14 19 -18 15 -10 -4 10 -1
9 8 -2 8 -10 21 -18 30 -18 9 0 19 -5 22 -10 4 -6 11 -7 17 -4 6 4 8 2 4 -4
-3 -6 3 -13 14 -17 11 -4 30 -16 42 -28 11 -12 18 -16 14 -10 -5 9 -2 11 8 7
8 -3 17 -12 20 -21 4 -8 13 -13 20 -10 8 3 17 -1 20 -9 3 -8 15 -14 26 -14 12
0 19 -4 15 -9 -3 -5 -1 -12 5 -16 5 -3 10 2 10 12 0 15 2 15 9 3 6 -8 7 -18 4
-24 -4 -5 -1 -6 6 -2 7 5 19 0 27 -10 9 -11 13 -14 10 -8 -3 6 1 11 9 11 7 0
12 -8 10 -19 -3 -15 -1 -16 17 -7 15 8 19 8 14 0 -4 -6 -2 -11 4 -11 6 0 8 -6
4 -12 -4 -7 -4 -10 1 -6 4 4 15 2 23 -5 13 -10 15 -9 8 3 -4 8 -1 7 8 -4 8
-10 19 -15 25 -12 5 4 16 -3 25 -15 8 -12 19 -18 25 -15 5 4 17 -4 25 -16 9
-12 16 -19 16 -15 0 5 7 1 16 -7 8 -9 20 -14 24 -11 5 3 14 -3 19 -14 12 -21
46 -39 36 -18 -4 6 1 3 9 -7 9 -11 16 -16 16 -12 0 4 7 0 16 -9 9 -9 24 -13
32 -10 9 3 13 3 9 -1 -3 -4 3 -15 15 -25 25 -22 32 -24 22 -6 -4 6 3 2 15 -11
13 -12 27 -19 34 -15 8 5 8 2 -1 -9 -10 -13 -9 -15 13 -13 14 2 25 -1 25 -6 0
-5 7 -9 15 -9 8 0 15 -4 15 -9 0 -5 15 -14 33 -21 60 -22 76 -33 70 -44 -4 -6
1 -5 10 3 15 12 17 12 11 -4 -5 -12 -4 -16 3 -12 6 4 13 0 17 -8 3 -9 0 -15
-10 -15 -8 0 -12 -4 -9 -10 6 -9 -10 -14 -42 -13 -7 1 -10 -4 -7 -9 3 -5 -3
-12 -15 -15 -12 -3 -21 -10 -21 -15 0 -6 -7 -7 -16 -4 -8 3 -12 2 -9 -4 7 -12
-63 -42 -79 -33 -6 4 -5 -1 3 -10 12 -15 12 -17 -1 -12 -9 4 -18 0 -21 -8 -4
-10 -18 -14 -41 -13 -20 1 -36 -2 -36 -6 0 -4 -7 -5 -15 -2 -8 4 -13 10 -10
14 3 4 -2 11 -11 14 -9 4 -13 2 -8 -5 9 -14 -47 21 -64 41 -12 13 -13 13 -7 0
4 -9 1 -8 -8 3 -9 10 -18 18 -21 18 -20 -3 -26 0 -21 9 3 5 0 7 -8 4 -8 -3
-18 0 -22 5 -3 6 -11 8 -17 5 -6 -4 -8 -2 -5 3 6 10 -27 27 -46 24 -4 -1 -10
6 -13 14 -4 8 -13 15 -20 15 -8 0 -28 14 -44 30 -17 17 -30 25 -31 18 0 -10
-2 -10 -6 0 -2 6 -11 12 -19 12 -8 0 -14 5 -14 12 0 6 -3 8 -7 5 -3 -4 -18 3
-32 15 -14 13 -19 15 -12 5 12 -15 12 -17 -3 -11 -9 3 -16 12 -16 19 0 7 -7
16 -16 19 -10 4 -13 2 -9 -7 4 -6 0 -4 -8 5 -8 10 -18 14 -22 10 -5 -4 -6 0
-2 9 4 12 0 15 -19 13 -21 -2 -28 6 -26 27 1 4 -8 5 -18 2 -12 -3 -20 0 -20 8
0 7 -3 10 -6 6 -4 -3 -13 0 -21 8 -8 8 -23 15 -34 15 -11 0 -19 7 -19 16 0 8
-4 12 -10 9 -5 -3 -10 0 -10 7 0 9 -3 9 -10 -2 -8 -13 -10 -13 -10 2 0 12 -6
16 -21 13 -18 -4 -19 -2 -7 12 9 12 9 15 1 9 -8 -4 -13 -2 -13 6 0 9 -3 9 -10
-2 -9 -13 -14 -7 -11 12 0 5 -2 7 -7 7 -4 -1 -10 0 -14 1 -13 4 -27 7 -39 9
-5 0 -8 5 -5 10 3 4 -6 13 -20 20 -20 9 -24 9 -19 -1 4 -7 -3 -2 -15 12 -12
14 -18 18 -14 10 7 -13 6 -13 -10 -1 -13 11 -14 16 -4 24 9 6 8 7 -4 3 -24 -7
-48 3 -48 20 0 8 -5 14 -11 14 -5 0 -7 -4 -4 -10 3 -6 -1 -7 -9 -4 -9 3 -16
12 -16 19 0 7 -7 16 -16 19 -15 6 -15 4 -3 -11 13 -17 13 -17 -7 0 -11 9 -24
14 -28 10 -4 -5 -6 -1 -4 7 2 8 -3 14 -10 12 -7 -1 -15 5 -19 14 -4 11 -8 12
-13 4 -6 -9 -10 -6 -14 8 -4 12 -15 20 -26 19 -11 -1 -17 -3 -15 -6 3 -2 -1
-11 -7 -20 -8 -9 -3 -8 12 4 14 11 19 13 13 4 -7 -8 -11 -25 -8 -37 2 -12 0
-24 -6 -27 -5 -4 -4 -15 3 -28 9 -19 9 -20 -3 -10 -11 9 -14 6 -16 -14 -1 -20
1 -23 9 -12 7 10 9 8 5 -9 -3 -12 -1 -20 4 -16 5 3 9 -2 9 -10 0 -9 8 -16 19
-16 11 0 23 -9 26 -21 5 -14 10 -18 14 -10 6 9 12 7 22 -5 12 -16 12 -17 -1
-9 -8 4 -12 4 -7 0 4 -5 17 -10 29 -12 11 -2 27 -11 35 -21 9 -10 11 -11 7 -2
-7 13 -5 13 9 2 9 -8 20 -11 25 -8 6 3 15 -1 22 -9 7 -8 16 -12 21 -9 5 3 6
-2 3 -11 -5 -11 -2 -14 10 -9 10 4 18 0 22 -10 3 -9 10 -13 15 -10 5 3 9 0 9
-5 0 -6 7 -11 16 -11 20 0 45 -25 36 -35 -4 -5 -1 -5 6 -1 7 4 19 2 27 -4 8
-7 15 -9 15 -5 0 4 9 -3 20 -16 10 -13 19 -20 20 -15 0 5 8 2 17 -5 14 -12 16
-12 8 0 -5 10 -4 12 3 7 7 -4 12 -17 13 -29 0 -12 3 -16 6 -9 2 6 9 12 14 12
6 0 7 -4 4 -10 -3 -5 3 -10 14 -10 11 0 32 -11 46 -26 14 -14 29 -22 35 -19 5
3 14 -4 20 -16 8 -15 19 -20 35 -17 16 4 22 1 18 -9 -3 -7 2 -13 12 -13 10 0
13 -4 9 -12 -5 -9 -2 -9 9 1 15 12 17 11 17 -4 0 -12 6 -16 20 -12 11 3 18 0
17 -7 -1 -6 4 -10 11 -8 6 1 12 -3 12 -9 0 -6 7 -9 14 -6 9 4 13 1 10 -6 -3
-8 4 -13 17 -14 12 -1 28 -11 36 -23 11 -15 18 -18 27 -11 9 7 16 5 26 -9 7
-10 17 -17 21 -14 4 2 18 -6 30 -18 12 -13 19 -16 15 -8 -5 9 -2 8 7 -2 8 -10
19 -18 26 -18 6 0 11 -4 11 -10 0 -5 9 -10 20 -10 11 0 20 -6 20 -14 0 -10 7
-12 22 -8 14 3 19 2 14 -6 -4 -7 -2 -12 4 -12 6 0 18 -7 27 -15 8 -8 19 -12
25 -9 7 4 8 2 4 -4 -4 -7 -1 -12 9 -12 9 0 14 -4 11 -9 -3 -4 5 -7 17 -7 12 1
28 -2 35 -8 7 -5 12 -5 11 0 -5 27 1 36 16 24 12 -10 14 -8 10 9 -2 13 0 19 7
15 5 -4 14 0 19 7 7 11 9 11 9 1 0 -8 8 -5 22 8 12 11 28 20 35 20 8 0 11 5 7
12 -5 7 -2 9 9 5 9 -3 18 0 21 9 3 9 10 13 15 10 5 -3 12 2 15 11 6 14 9 15
15 4 7 -11 10 -9 15 7 5 14 12 19 23 15 11 -4 14 -2 9 5 -6 11 5 17 27 13 4 0
6 5 5 11 -2 7 3 12 10 10 6 -1 12 4 12 12 0 8 5 18 12 22 7 4 8 3 4 -4 -4 -7
-2 -12 3 -12 6 0 11 4 11 8 0 4 9 8 20 8 10 0 17 -2 15 -5 -3 -2 1 -11 8 -20
11 -14 10 -14 -6 -2 -17 13 -17 13 -6 -12 10 -21 9 -30 -2 -44 -9 -11 -10 -14
-1 -9 6 4 12 2 12 -3 0 -6 -5 -11 -11 -11 -8 0 -8 -5 1 -15 10 -12 10 -15 -1
-15 -11 0 -11 -2 1 -10 10 -6 11 -10 3 -10 -7 0 -13 -5 -13 -11 0 -5 5 -7 12
-3 7 4 8 3 4 -5 -13 -20 -14 -101 -2 -93 6 3 3 -6 -6 -20 -14 -21 -15 -28 -4
-37 7 -6 15 -10 17 -8 3 1 -4 -6 -14 -15 -11 -10 -15 -18 -10 -18 11 0 11 -45
1 -56 -4 -3 -3 -17 3 -31 11 -29 11 -36 2 -30 -5 3 -8 -6 -8 -19 0 -17 4 -23
14 -19 11 4 10 0 -3 -14 -9 -10 -13 -22 -8 -25 10 -6 7 -60 -3 -77 -4 -5 -1
-9 6 -9 9 0 9 -3 0 -14 -7 -9 -8 -17 -3 -20 6 -3 7 -21 2 -41 -4 -19 -4 -37 0
-40 4 -3 4 -21 0 -40 -5 -21 -4 -38 2 -41 6 -4 5 -10 -3 -15 -9 -6 -10 -9 -2
-9 8 0 9 -9 3 -30 -6 -21 -5 -30 3 -30 7 0 6 -4 -3 -10 -9 -6 -10 -10 -3 -10
8 0 9 -9 3 -30 -6 -21 -5 -30 3 -30 7 0 6 -4 -3 -10 -9 -6 -10 -10 -3 -10 8 0
9 -9 3 -30 -6 -21 -5 -30 3 -30 7 0 6 -4 -3 -10 -8 -5 -10 -10 -5 -10 12 0 13
-40 1 -58 -4 -7 -2 -12 4 -12 6 0 8 -5 5 -11 -10 -16 -13 -59 -5 -59 10 0 8
-20 -3 -37 -5 -8 -3 -13 3 -13 6 0 8 -5 5 -11 -11 -16 -13 -59 -4 -59 5 0 4
-12 -1 -26 -7 -16 -7 -23 0 -19 12 8 13 -5 1 -24 -6 -8 -6 -24 0 -38 6 -16 5
-23 -4 -23 -7 0 -8 -3 -2 -8 11 -8 14 -93 3 -85 -5 2 -4 -7 1 -20 6 -16 6 -28
-2 -36 -8 -8 -8 -11 1 -11 9 0 10 -5 3 -17 -5 -10 -5 -26 -1 -39 5 -12 6 -25
2 -29 -10 -10 -8 -39 2 -47 6 -4 4 -13 -3 -22 -8 -9 -9 -16 -3 -16 11 0 11
-25 0 -36 -4 -3 -3 -17 3 -31 12 -32 11 -36 -3 -27 -6 4 -8 3 -4 -4 12 -20 14
-72 2 -72 -8 0 -8 -2 0 -8 13 -8 13 -100 0 -121 -7 -10 -5 -12 4 -6 8 5 11 3
8 -6 -3 -8 -10 -13 -16 -12 -6 2 -9 -5 -6 -15 5 -15 4 -15 -10 2 -8 10 -19 15
-25 11 -7 -4 -8 1 -4 12 3 10 3 15 -2 11 -10 -10 -47 11 -40 22 3 5 -4 7 -15
5 -13 -3 -20 1 -20 12 0 9 -3 14 -6 10 -4 -3 -14 2 -23 11 -10 11 -12 12 -6 2
7 -11 5 -11 -11 2 -11 10 -28 18 -38 18 -9 0 -14 5 -11 10 3 6 -3 10 -15 10
-12 0 -19 4 -16 9 7 11 -22 23 -36 14 -7 -3 -8 -1 -4 5 4 7 1 12 -8 12 -9 0
-16 4 -16 9 0 5 -8 8 -17 7 -10 0 -17 4 -16 11 2 7 -4 10 -12 7 -8 -4 -12 -11
-9 -18 3 -6 0 -4 -8 4 -16 18 -39 24 -36 9 2 -6 -7 -12 -19 -14 -13 -1 -26 -5
-30 -10 -5 -4 0 -5 10 -2 10 4 16 3 12 -2 -3 -5 -19 -12 -35 -16 -17 -4 -30
-10 -30 -15 0 -8 -39 -23 -54 -21 -5 1 -6 -5 -3 -13 4 -9 3 -15 -1 -14 -18 4
-61 -15 -55 -25 4 -6 0 -8 -10 -4 -10 4 -17 2 -17 -4 0 -6 -7 -9 -15 -5 -8 3
-14 0 -12 -7 1 -7 -8 -12 -20 -11 -12 0 -20 -4 -17 -8 7 -11 -27 -38 -38 -32
-5 3 -8 0 -8 -6 0 -6 -13 -16 -30 -21 -16 -6 -30 -15 -30 -20 0 -5 -5 -9 -11
-9 -5 0 -7 6 -4 13 4 6 0 4 -8 -5 -8 -10 -18 -14 -22 -10 -5 4 -5 -2 -1 -12 5
-16 4 -17 -9 -6 -12 10 -15 10 -15 0 0 -7 -7 -10 -16 -6 -8 3 -13 2 -10 -3 7
-11 -41 -44 -53 -36 -5 2 -12 -2 -15 -11 -4 -9 -13 -14 -21 -10 -8 3 -15 1
-15 -5 0 -5 -12 -14 -26 -19 -14 -6 -22 -14 -19 -20 3 -6 -1 -7 -9 -4 -9 4
-18 0 -22 -9 -3 -9 -14 -14 -25 -12 -12 3 -17 0 -13 -7 5 -8 1 -9 -10 -5 -10
4 -15 3 -11 -3 7 -11 -29 -32 -39 -23 -3 3 -6 1 -6 -5 0 -7 -7 -12 -16 -12 -8
0 -13 -4 -9 -9 3 -6 -3 -8 -15 -6 -11 2 -19 1 -19 -3 3 -20 -2 -25 -11 -12 -8
13 -10 12 -10 -2 0 -10 -3 -17 -7 -17 -5 1 -17 1 -28 0 -17 -1 -18 -3 -5 -11
13 -9 7 -14 -12 -11 -5 0 -8 -3 -8 -9 0 -5 -6 -7 -14 -4 -8 3 -21 -5 -30 -18
-9 -12 -16 -17 -16 -10 0 10 -4 9 -16 -2 -8 -9 -20 -14 -25 -11 -5 4 -9 1 -9
-4 0 -6 -7 -11 -15 -11 -8 0 -15 -5 -15 -11 0 -5 -4 -8 -9 -5 -5 3 -12 -1 -15
-10 -3 -9 -13 -14 -21 -11 -8 4 -23 -5 -35 -21 -12 -15 -18 -21 -14 -13 4 9 3
12 -4 7 -6 -4 -9 -13 -6 -20 3 -8 0 -17 -6 -21 -8 -5 -6 -13 7 -28 10 -11 12
-17 4 -12 -9 5 -12 3 -9 -6 3 -8 1 -22 -3 -31 -6 -11 -4 -22 7 -32 8 -9 11
-16 5 -16 -6 0 -11 -7 -11 -15 0 -8 7 -15 15 -15 8 0 15 6 15 13 0 8 4 7 10
-3 7 -11 10 -11 10 -2 0 7 4 11 9 8 5 -3 12 1 15 10 4 9 13 14 21 10 8 -3 14
0 12 7 -1 7 8 12 19 11 14 0 20 4 17 13 -3 8 3 13 16 13 11 0 25 9 31 20 7 13
21 20 41 20 17 0 28 4 25 8 -2 4 4 14 16 21 11 7 17 8 14 2 -4 -7 -1 -8 8 -5
9 3 13 10 10 15 -3 5 2 6 10 3 9 -3 16 -1 16 5 0 6 7 11 16 11 8 0 12 4 9 10
-3 6 1 7 9 4 9 -3 16 -1 16 5 0 5 10 16 23 22 21 12 21 11 7 -7 -14 -18 -14
-18 3 -5 10 8 16 19 13 26 -2 7 5 11 17 10 12 -1 28 4 35 12 8 7 18 11 23 8 5
-4 9 -1 9 6 0 7 3 9 7 6 3 -4 12 1 20 11 10 11 12 12 8 2 -4 -8 1 -6 10 5 14
17 17 18 26 5 8 -12 9 -12 7 4 -2 10 3 21 11 24 9 3 11 0 7 -9 -4 -8 0 -5 9 6
9 11 21 20 28 20 7 1 11 7 9 15 -3 11 0 11 12 1 11 -9 16 -9 22 0 4 8 3 9 -4
5 -7 -4 -12 -5 -12 -2 0 3 10 10 21 17 17 9 20 8 14 -3 -3 -7 2 -3 13 9 21 24
38 31 26 11 -4 -7 -3 -8 4 -4 7 4 12 13 12 20 0 8 8 13 18 12 9 0 16 4 15 11
-2 7 4 10 12 7 8 -4 15 -1 15 6 0 7 7 10 16 6 8 -3 13 -2 10 2 -3 4 4 14 16
21 16 10 19 10 13 -1 -3 -7 0 -5 9 6 8 10 20 15 27 10 8 -5 10 -3 4 6 -6 10
-4 12 8 7 11 -4 17 -1 17 8 0 7 5 17 12 21 7 5 9 2 4 -7 -4 -8 -2 -7 6 2 7 9
21 15 30 13 11 -1 15 3 11 14 -4 10 -2 13 5 8 7 -4 15 -1 18 8 3 8 11 13 19
10 7 -3 15 2 19 11 3 9 10 13 16 10 5 -3 10 -1 10 5 0 7 7 10 15 6 8 -3 14 0
12 7 -1 7 6 11 15 11 11 -1 15 4 10 15 -5 13 -3 14 9 4 13 -10 19 -9 35 5 23
20 44 26 44 12 0 -5 6 -7 14 -4 8 3 21 -5 30 -18 9 -12 16 -18 16 -13 0 6 5 3
10 -5 9 -13 10 -13 10 0 0 8 9 2 20 -15 11 -16 20 -25 20 -20 0 6 -3 15 -7 21
-5 5 0 1 10 -9 9 -11 17 -16 17 -13 0 4 12 -4 26 -18 16 -14 36 -23 50 -21 13
1 21 -2 18 -6 -3 -5 1 -9 10 -9 19 0 14 -29 -7 -45 -9 -7 -13 -16 -9 -20 4 -5
-1 -6 -10 -2 -9 3 -19 0 -22 -9 -3 -8 -11 -14 -18 -13 -10 0 -10 2 0 6 6 2 12
10 12 16 -1 7 -10 1 -20 -12 -11 -13 -20 -20 -20 -15 0 4 -6 0 -13 -11 -8 -10
-19 -15 -25 -11 -7 4 -12 2 -12 -4 0 -6 -4 -8 -10 -5 -5 3 -10 1 -10 -5 0 -6
-4 -8 -10 -5 -6 3 -7 -1 -4 -10 4 -9 3 -15 -2 -14 -25 4 -44 -3 -44 -16 0 -13
-25 -21 -52 -16 -5 0 -7 -5 -5 -12 1 -6 -6 -11 -16 -10 -11 0 -16 -4 -14 -12
4 -8 -3 -12 -16 -11 -13 1 -21 -4 -19 -12 2 -10 -2 -10 -18 -2 -16 8 -18 8
-14 -4 3 -8 0 -17 -7 -22 -8 -5 -10 -3 -5 7 4 8 2 7 -6 -2 -7 -9 -21 -15 -30
-13 -10 1 -21 -3 -25 -8 -4 -7 -1 -8 7 -3 9 5 11 4 6 -4 -4 -7 -13 -10 -19 -8
-7 2 -17 -5 -24 -17 -7 -12 -12 -15 -13 -8 0 10 -4 9 -16 -2 -8 -9 -19 -14
-24 -11 -5 3 -12 0 -16 -6 -5 -8 -3 -9 6 -4 9 5 11 4 6 -3 -4 -7 -14 -12 -22
-12 -8 0 -14 -4 -14 -9 0 -6 -9 -8 -19 -6 -15 3 -18 -1 -14 -12 4 -10 2 -14
-5 -9 -6 3 -13 2 -17 -4 -4 -6 -11 -8 -16 -5 -5 4 -9 2 -9 -4 0 -6 -10 -16
-22 -22 -22 -12 -22 -11 -8 6 15 18 14 18 -12 1 -16 -10 -28 -23 -28 -28 0 -5
-5 -6 -12 -2 -7 5 -9 2 -6 -8 4 -8 1 -15 -7 -15 -7 0 -11 7 -8 16 3 9 -2 6
-11 -7 -10 -12 -21 -20 -26 -17 -4 3 -11 -2 -14 -11 -4 -9 -9 -14 -12 -11 -4
3 -13 -1 -21 -9 -9 -8 -22 -13 -29 -10 -8 3 -13 2 -13 -2 3 -21 -3 -31 -16
-26 -10 4 -15 0 -15 -12 0 -14 -2 -16 -9 -6 -7 11 -9 11 -14 -2 -4 -9 -14 -13
-27 -11 -11 2 -18 0 -15 -6 4 -5 1 -9 -5 -9 -6 0 -9 -4 -5 -9 3 -6 -4 -8 -16
-6 -15 3 -19 0 -15 -11 3 -9 2 -12 -4 -9 -15 10 -51 -5 -44 -17 5 -7 2 -9 -7
-6 -15 6 -41 -15 -33 -26 2 -3 -2 -2 -8 4 -9 8 -18 4 -31 -12 -10 -13 -16 -16
-12 -8 4 10 2 9 -8 -2 -8 -10 -17 -15 -20 -11 -4 3 -7 -1 -7 -10 0 -10 -5 -17
-11 -17 -5 0 -7 6 -3 13 6 9 5 9 -8 0 -8 -7 -18 -10 -22 -6 -4 4 -4 0 -1 -9 5
-13 2 -16 -14 -13 -14 2 -21 -1 -21 -11 0 -8 -3 -13 -7 -13 -22 4 -33 -2 -27
-13 5 -9 2 -8 -9 1 -15 12 -17 12 -11 -3 5 -12 2 -15 -12 -9 -10 4 -15 2 -11
-4 6 -10 -120 -80 -135 -75 -5 1 -7 -4 -5 -11 1 -6 -6 -11 -16 -10 -12 0 -16
-4 -13 -12 3 -9 0 -12 -8 -9 -7 3 -19 -2 -26 -11 -9 -11 -16 -12 -25 -5 -10 8
-13 6 -11 -7 0 -12 -6 -18 -19 -18 -11 -1 -19 -7 -17 -14 1 -7 -2 -10 -7 -7
-5 4 -19 -4 -31 -16 -19 -21 -21 -21 -15 -3 6 19 6 19 -8 3 -8 -10 -18 -14
-22 -10 -5 4 -5 -1 -2 -10 4 -13 1 -16 -14 -13 -11 2 -22 -2 -26 -10 -3 -8
-10 -12 -15 -9 -6 4 -20 -4 -30 -17 -11 -13 -16 -17 -12 -9 7 13 6 13 -12 0
-10 -8 -23 -20 -29 -27 -11 -12 -75 -6 -75 8 0 5 -7 5 -17 2 -10 -4 -14 -2 -9
5 7 12 -27 35 -38 25 -3 -3 -6 -1 -6 5 0 7 -7 12 -15 12 -8 0 -15 4 -15 9 0 5
-9 11 -21 14 -14 4 -18 10 -13 19 6 10 5 11 -8 1 -12 -11 -18 -9 -33 7 -10 12
-25 18 -32 15 -8 -2 -11 0 -8 5 3 6 1 10 -5 10 -6 0 -8 5 -4 12 5 8 0 7 -11
-2 -15 -12 -17 -12 -10 -1 6 11 4 13 -9 8 -13 -5 -17 -3 -13 7 4 11 1 13 -10
9 -11 -4 -14 -2 -9 5 5 8 2 10 -8 6 -11 -4 -16 0 -16 11 0 14 -3 15 -14 6 -16
-13 -32 1 -21 19 4 6 -1 7 -11 3 -12 -4 -15 -3 -10 5 4 8 2 10 -7 6 -8 -3 -17
1 -20 10 -4 9 -16 13 -31 12 -23 -3 -24 -1 -14 12 8 10 8 13 2 9 -7 -4 -17 0
-24 8 -10 12 -16 13 -28 3 -9 -7 -13 -8 -10 -3 3 6 0 16 -8 23 -9 8 -14 9 -14
2 0 -6 -7 -4 -16 4 -8 9 -20 13 -26 10 -7 -4 -8 -2 -4 4 4 7 1 12 -8 12 -9 0
-16 5 -16 10 0 6 -9 10 -20 10 -11 0 -20 5 -20 11 0 6 -7 9 -14 6 -10 -4 -13
-1 -9 9 3 8 2 14 -3 13 -22 -4 -35 2 -28 13 4 7 3 8 -4 4 -6 -4 -22 -1 -34 6
-13 7 -27 11 -32 10 -5 -2 -4 3 2 11 10 12 8 14 -14 11 -20 -2 -24 1 -20 13 5
13 4 14 -9 3 -12 -10 -15 -10 -15 4 0 13 -5 16 -20 11 -11 -4 -19 -3 -18 2 2
4 -1 9 -5 10 -5 1 -14 9 -21 18 -6 9 -21 17 -34 18 -12 0 -22 7 -22 14 0 7 -9
13 -20 13 -11 0 -20 5 -20 10 0 6 -9 10 -20 10 -11 0 -20 7 -20 16 0 8 -5 12
-10 9 -6 -3 -10 -1 -10 6 0 7 -3 9 -6 6 -4 -3 -16 -1 -28 5 -11 7 -24 11 -28
10 -4 -1 -5 5 -2 13 4 10 0 13 -14 10 -12 -2 -26 3 -32 11 -7 7 -17 11 -23 7
-5 -3 -7 -1 -4 4 4 6 -1 17 -10 24 -12 10 -14 10 -9 2 12 -21 -1 -15 -29 12
-15 16 -25 21 -26 13 0 -10 -2 -10 -6 0 -2 6 -11 12 -19 12 -8 0 -17 7 -21 16
-5 13 -7 13 -14 2 -7 -10 -9 -9 -9 5 0 9 -7 17 -16 17 -9 0 -12 5 -8 13 5 8 2
8 -9 -2 -15 -12 -21 -9 -18 12 0 4 -6 7 -15 7 -9 0 -12 5 -8 13 5 8 2 8 -9 -2
-15 -12 -17 -11 -17 3 0 10 -5 14 -10 11 -6 -3 -10 -1 -10 5 0 7 -7 10 -15 7
-8 -4 -17 -1 -21 5 -5 7 -2 8 6 3 8 -5 11 -4 6 3 -4 6 -13 9 -21 5 -10 -3 -15
1 -15 12 0 9 -4 13 -10 10 -6 -3 -10 -1 -10 6 0 8 -5 8 -17 -2 -10 -7 -15 -9
-10 -4 10 12 -22 45 -39 38 -8 -3 -14 0 -14 6 0 6 -7 11 -15 11 -9 0 -25 9
-37 20 -12 11 -30 20 -40 20 -10 0 -18 5 -18 10 0 6 -7 10 -15 10 -8 0 -24 9
-35 20 -12 12 -20 15 -21 7 0 -9 -2 -9 -6 1 -2 6 -11 12 -19 12 -9 0 -12 5 -8
11 4 7 1 10 -7 7 -7 -2 -24 7 -36 20 -25 27 -29 37 -11 26 8 -5 9 -2 5 10 -5
13 -3 17 7 13 8 -3 17 1 20 9 3 8 9 14 13 13 21 -3 34 2 28 12 -4 6 0 9 11 7
11 -2 18 2 17 8 -1 6 9 10 23 8 13 -1 22 2 19 6 -3 5 4 11 15 15 11 4 17 11
14 17 -4 6 -2 8 4 4 6 -3 13 -2 17 4 4 6 10 8 15 5 4 -3 11 3 14 12 6 15 8 15
16 3 8 -13 10 -13 10 1 0 18 47 32 56 17 3 -4 10 -6 15 -3 5 3 6 -1 3 -10 -5
-11 -2 -14 10 -9 11 4 16 1 16 -11 0 -9 4 -13 10 -10 6 3 10 1 10 -5 0 -7 7
-9 16 -6 8 3 13 2 10 -3 -8 -12 18 -32 43 -34 12 -1 21 -5 21 -9 0 -4 7 -8 15
-8 8 0 15 -6 15 -12 0 -10 2 -10 9 0 6 10 10 8 15 -10 4 -17 8 -20 14 -10 10
14 23 3 35 -28 4 -11 6 -10 7 5 1 18 2 17 15 -5 7 -14 16 -24 19 -22 15 6 26
1 26 -13 0 -8 5 -15 11 -15 5 0 7 5 3 12 -5 7 -2 8 7 3 26 -15 49 -38 44 -45
-2 -4 2 -7 10 -7 8 0 12 4 9 9 -3 4 2 5 10 2 9 -3 13 -10 10 -15 -3 -5 4 -9
16 -9 12 0 19 -4 16 -8 -2 -4 4 -13 14 -20 17 -10 18 -9 13 6 -9 25 3 12 21
-23 11 -20 16 -24 16 -12 0 9 5 17 11 17 5 0 8 -4 5 -9 -8 -13 21 -34 38 -28
11 4 13 1 9 -10 -4 -11 -2 -14 5 -9 7 4 12 2 12 -5 0 -6 8 -9 20 -6 11 3 18 2
16 -1 -2 -4 2 -13 10 -20 11 -10 14 -10 14 0 0 7 7 2 16 -10 9 -13 22 -21 29
-18 8 3 19 -2 25 -10 7 -8 19 -14 27 -14 9 0 11 -5 7 -12 -5 -8 0 -7 11 2 10
8 16 10 12 4 -4 -7 1 -18 10 -25 14 -12 16 -12 9 1 -4 9 -2 8 7 -2 8 -10 17
-15 20 -11 4 3 7 1 7 -6 0 -7 5 -9 10 -6 6 3 10 -2 10 -12 0 -15 2 -16 10 -3
9 13 14 7 11 -12 0 -4 6 -5 14 -2 8 4 17 -1 21 -9 3 -9 14 -14 25 -12 11 2 17
0 14 -6 -4 -5 1 -9 10 -9 9 0 13 -4 10 -10 -3 -5 0 -7 7 -5 8 3 22 -2 33 -11
11 -8 14 -12 6 -8 -9 4 -12 3 -7 -4 3 -6 16 -9 27 -7 15 3 19 0 15 -10 -3 -10
0 -12 11 -8 12 5 14 3 8 -7 -5 -8 -4 -11 3 -7 14 9 43 -3 36 -14 -3 -5 4 -9
15 -9 10 0 21 -4 23 -9 2 -5 9 -3 16 5 10 11 10 14 0 14 -9 0 -9 3 2 10 13 9
13 11 0 20 -8 5 -10 10 -5 10 6 0 11 9 12 20 1 13 -2 18 -10 13 -7 -4 -6 0 2
10 9 12 10 17 2 17 -7 0 -9 5 -6 10 4 6 12 8 18 4 7 -3 4 1 -5 9 -21 16 -24
32 -5 21 8 -5 8 -2 -2 9 -7 9 -20 17 -28 17 -8 0 -12 4 -8 9 4 8 -34 28 -43
22 -2 -1 -12 7 -21 18 -10 11 -21 18 -25 14 -3 -3 -6 -1 -6 7 0 10 -4 10 -17
-1 -11 -10 -14 -10 -9 -2 4 8 1 13 -9 13 -9 0 -13 5 -10 10 4 6 -5 10 -20 10
-15 0 -24 4 -20 10 6 9 2 11 -35 14 -8 1 -14 8 -12 15 2 8 -3 11 -13 8 -8 -4
-15 -2 -15 4 0 6 -7 9 -14 6 -10 -4 -13 -1 -10 8 4 10 0 13 -15 10 -14 -3 -18
1 -14 11 4 10 0 12 -11 8 -9 -3 -16 -1 -16 5 0 6 -6 8 -14 5 -8 -3 -17 0 -22
7 -5 8 -3 10 6 4 9 -5 11 -4 6 4 -4 6 -12 9 -17 5 -6 -3 -19 4 -29 16 -12 14
-26 20 -35 16 -9 -3 -13 -2 -10 4 6 9 -8 14 -28 11 -5 -1 -11 7 -14 18 -3 13
-12 18 -24 16 -10 -2 -22 1 -25 7 -5 7 -2 8 6 3 8 -5 11 -4 7 3 -4 5 -17 8
-29 4 -14 -3 -19 -2 -14 6 4 7 1 12 -8 12 -9 0 -16 5 -16 10 0 6 -8 10 -19 10
-10 0 -24 7 -31 15 -7 9 -15 13 -18 10 -3 -2 -13 4 -23 16 -12 14 -18 16 -22
7 -3 -8 -6 -6 -6 6 -1 12 -6 16 -17 12 -8 -3 -12 -2 -9 4 3 6 -1 10 -10 10 -8
0 -18 6 -21 14 -3 7 -15 13 -27 12 -12 -1 -29 6 -38 14 -26 25 -60 45 -71 42
-5 -1 -7 2 -3 8 6 10 -7 14 -34 11 -8 -2 -10 2 -5 10 5 9 2 10 -9 6 -12 -4
-17 -1 -17 9 0 10 -6 14 -15 10 -8 -3 -18 2 -23 10 -5 8 -18 16 -29 17 -13 0
-19 6 -16 14 3 8 2 13 -3 11 -16 -4 -54 13 -54 24 0 6 -3 8 -7 5 -3 -4 -13 -1
-21 6 -13 10 -15 9 -8 -3 4 -8 0 -6 -8 4 -15 18 -16 18 -16 2 0 -9 -4 -15 -8
-12 -5 3 -19 -4 -30 -15 -12 -11 -22 -15 -22 -9 0 6 -5 8 -11 5 -6 -4 -8 -13
-5 -21 3 -8 0 -11 -10 -7 -7 3 -14 0 -14 -7 0 -10 -3 -10 -14 -1 -11 9 -14 8
-12 -6 0 -10 -6 -18 -14 -18 -8 -1 -14 -7 -12 -14 1 -7 -2 -10 -7 -6 -12 7
-52 -14 -64 -33 -5 -7 -12 -10 -18 -7 -12 8 -51 -20 -41 -29 4 -4 2 -7 -3 -6
-21 5 -46 0 -41 -8 2 -4 -4 -13 -14 -19 -29 -19 -57 12 -56 64 1 23 4 45 8 49
4 4 4 12 1 18 -12 18 -11 56 1 56 6 0 5 4 -2 9 -17 11 -17 21 0 32 8 6 9 12 3
17 -12 8 -13 27 -3 38 4 4 3 13 -3 20 -7 8 -7 14 1 19 8 5 8 10 0 20 -8 10 -8
15 0 20 8 5 8 10 0 20 -8 10 -8 15 0 20 8 5 8 10 0 20 -8 10 -8 15 0 20 8 5 8
10 0 20 -8 9 -8 15 0 20 6 3 7 12 3 18 -11 17 -10 61 2 69 7 5 6 8 -1 8 -11 0
-11 51 1 69 3 6 2 11 -3 11 -10 0 -8 42 3 59 3 6 0 11 -7 11 -9 0 -9 3 2 10
12 8 12 10 1 10 -11 0 -11 3 -1 15 10 12 10 15 -1 15 -8 0 -5 6 7 15 12 10 14
14 4 13 -16 -3 -20 30 -6 50 5 7 4 12 -3 12 -9 0 -9 5 -1 20 8 15 8 20 -1 20
-8 0 -8 4 1 15 9 11 9 15 1 15 -7 0 -9 5 -6 10 4 6 12 7 18 3 7 -3 3 3 -7 15
-11 12 -14 22 -8 22 7 0 12 5 12 11 0 5 -4 8 -9 4 -6 -3 -6 7 0 27 11 40 11
40 1 34 -12 -7 -9 38 3 46 6 5 5 8 -3 8 -7 0 -10 5 -7 10 4 6 12 7 18 3 7 -4
6 1 -2 11 -17 20 -22 54 -9 62 4 3 8 10 8 15 0 6 -4 8 -8 5 -10 -6 -9 25 2 42
4 7 2 12 -5 12 -7 0 -4 7 7 15 10 8 15 15 9 14 -22 -3 -27 2 -15 16 7 8 9 15
4 15 -12 0 -11 83 1 93 6 4 4 11 -5 17 -12 8 -12 10 -1 10 11 0 11 3 1 15 -9
10 -9 15 -1 15 6 0 11 5 11 11 0 5 -5 7 -11 3 -8 -5 -8 -1 0 14 14 25 14 35 2
27 -10 -6 -7 27 4 45 3 6 0 10 -7 10 -9 0 -9 3 2 10 13 9 13 10 0 10 -12 1
-12 3 3 14 16 12 16 14 1 20 -13 5 -14 9 -4 21 10 12 10 15 0 15 -9 0 -9 4 1
17 8 9 9 14 4 11 -12 -7 -13 51 -1 70 4 7 2 12 -5 12 -8 0 -8 4 1 15 10 12 10
15 -1 15 -10 0 -10 3 -1 12 8 8 9 15 1 25 -9 10 -8 13 2 13 11 0 11 2 -1 10
-11 7 -11 10 -2 10 10 0 10 5 1 21 -8 16 -8 20 1 14 9 -6 9 -2 1 14 -9 16 -9
21 0 21 8 0 8 4 -1 15 -10 12 -10 18 -1 29 9 10 9 16 1 21 -8 5 -8 11 -1 19 6
7 8 16 4 20 -12 12 -12 36 0 36 8 0 7 3 -1 9 -18 11 -15 23 11 39 14 8 15 11
4 8 -9 -3 -17 -1 -17 5 0 13 53 2 58 -12 2 -5 10 -9 18 -9 8 0 14 -4 14 -10 0
-5 10 -10 21 -10 18 0 19 -2 9 -15 -11 -13 -10 -14 4 -9 9 3 16 1 16 -5 0 -6
7 -8 15 -5 8 4 15 1 15 -6 0 -6 4 -8 10 -5 6 3 10 1 10 -5 0 -6 5 -8 10 -5 6
3 10 -1 10 -9 0 -9 9 -16 20 -16 11 0 20 -6 20 -12 0 -9 4 -8 10 2 8 13 10 13
10 -1 0 -9 7 -20 16 -23 10 -4 13 -2 8 7 -4 6 5 -1 19 -16 15 -15 32 -25 37
-22 6 3 10 1 10 -5 0 -7 7 -9 16 -6 14 5 15 4 4 -9 -11 -13 -8 -15 18 -15 37
0 64 9 57 20 -3 4 2 11 11 14 8 3 12 2 9 -4 -3 -6 1 -7 9 -4 9 3 14 10 11 14
-3 5 -1 11 5 15 5 3 10 1 10 -6 0 -6 9 -1 21 12 11 13 17 17 13 9 -7 -12 -5
-13 8 -3 8 7 18 10 22 6 4 -4 4 1 0 12 -6 15 -4 17 10 12 11 -5 15 -3 10 5 -5
8 -2 9 9 5 10 -4 16 -2 14 5 -1 7 4 13 11 14 6 1 17 2 23 3 5 0 8 5 4 11 -5 8
70 36 88 32 5 -2 6 2 2 8 -3 6 -12 7 -18 4 -9 -5 -9 -4 -2 4 6 7 23 13 38 14
15 1 27 8 27 16 0 9 6 12 16 8 10 -4 13 -2 8 6 -5 7 -2 9 8 6 9 -4 26 4 41 18
14 13 31 24 37 24 6 0 8 5 4 12 -5 7 -3 8 5 4 7 -5 19 0 27 10 9 11 13 13 9 7
-4 -9 -1 -11 10 -7 10 4 14 13 10 23 -5 13 -4 13 6 4 10 -10 15 -9 26 5 9 10
12 11 7 2 -7 -13 -5 -13 9 -1 9 7 14 18 10 25 -3 6 -3 8 2 4 4 -4 14 -3 22 3
10 9 13 8 14 -2 0 -8 5 -3 10 10 5 13 15 21 23 18 7 -3 19 3 26 13 8 11 18 16
23 13 6 -3 15 1 21 9 11 15 17 18 39 18 9 0 9 2 -1 9 -10 6 -9 10 7 14 14 3
19 1 14 -6 -3 -7 5 -1 20 12 15 13 31 20 38 16 7 -5 10 -4 6 2 -4 6 1 17 10
24 12 10 14 10 9 2 -11 -19 7 -16 26 5 32 33 47 42 53 32 3 -6 12 -10 18 -10
7 0 6 4 -3 10 -13 8 -12 10 4 10 11 0 16 3 13 7 -14 13 27 32 47 21 12 -7 16
-7 12 0 -3 6 -2 13 4 17 5 3 10 0 11 -7 0 -7 4 -3 9 10 5 12 16 22 25 22 8 0
15 4 15 10 0 5 7 7 15 4 10 -4 15 0 15 12 0 16 2 17 10 4 7 -11 10 -11 10 -2
0 7 4 11 9 7 6 -3 8 4 6 15 -3 13 2 20 13 21 10 0 12 3 5 6 -7 2 -13 9 -13 14
0 6 5 7 12 3 7 -5 8 -3 2 7 -12 19 -11 42 1 51 6 5 6 8 -2 8 -8 0 -11 12 -8
36 3 22 1 33 -5 29 -5 -3 -10 -1 -10 6 0 8 -5 7 -17 -2 -11 -9 -14 -10 -9 -2
5 9 2 11 -8 7 -9 -3 -14 -11 -13 -17 1 -7 -8 -11 -20 -11 -13 1 -20 -2 -17 -7
2 -5 -7 -11 -21 -15 -14 -3 -25 -11 -25 -16 0 -6 -9 -8 -21 -5 -16 4 -18 3 -8
-9 9 -11 7 -14 -16 -14 -20 0 -26 -4 -21 -16 3 -8 2 -13 -3 -9 -13 7 -42 -5
-36 -16 3 -4 -4 -6 -15 -4 -11 2 -18 0 -15 -6 4 -5 -1 -9 -9 -9 -9 0 -16 -4
-16 -10 0 -5 -8 -10 -19 -10 -10 0 -24 -7 -31 -15 -6 -8 -17 -13 -23 -12 -7 1
-11 -3 -10 -10 2 -7 -6 -10 -16 -8 -11 2 -22 -3 -25 -11 -3 -8 -12 -11 -22 -7
-14 5 -16 3 -11 -11 4 -9 3 -15 -2 -11 -5 3 -12 1 -16 -5 -3 -5 -15 -10 -27
-10 -13 0 -18 -5 -15 -13 3 -9 -3 -13 -17 -13 -11 1 -20 -4 -19 -11 2 -7 -4
-10 -12 -7 -8 4 -15 1 -15 -6 0 -6 -4 -8 -10 -5 -5 3 -10 1 -10 -6 0 -6 -8 -9
-19 -6 -15 3 -18 0 -14 -17 4 -17 3 -18 -6 -6 -7 10 -11 11 -11 3 0 -7 -7 -13
-16 -13 -8 0 -13 -4 -9 -9 3 -6 -4 -8 -15 -6 -14 3 -20 -1 -20 -13 0 -15 -2
-15 -10 -2 -8 13 -10 12 -10 -3 0 -10 -4 -15 -10 -12 -5 3 -10 0 -10 -7 0 -9
-3 -9 -10 2 -8 13 -10 12 -10 -3 0 -10 -4 -15 -10 -12 -5 3 -10 1 -10 -5 0 -6
-4 -9 -9 -6 -5 3 -12 -1 -15 -10 -3 -9 -13 -14 -20 -11 -8 3 -17 -1 -20 -9 -3
-8 -14 -14 -25 -14 -11 0 -23 -5 -27 -12 -5 -7 -2 -8 7 -3 8 5 11 4 6 -1 -5
-5 -13 -10 -18 -10 -5 -1 -13 -2 -19 -3 -5 0 -10 -8 -10 -17 0 -8 -4 -12 -10
-9 -5 3 -20 0 -32 -7 -13 -7 -26 -11 -30 -10 -5 1 -8 -3 -8 -8 0 -6 -6 -10
-14 -8 -8 2 -21 -5 -28 -15 -8 -10 -22 -20 -33 -21 -11 -2 -19 -9 -17 -16 1
-6 -2 -9 -7 -6 -5 4 -13 1 -16 -5 -4 -5 -13 -8 -20 -5 -7 2 -16 -2 -19 -11 -4
-9 -14 -13 -26 -10 -11 3 -20 0 -20 -6 0 -7 -5 -5 -10 3 -9 13 -10 13 -10 0 0
-10 -8 -6 -23 12 -19 22 -26 25 -37 15 -8 -7 -11 -8 -7 -1 4 7 -6 17 -23 24
-17 7 -30 16 -30 21 0 5 -8 9 -19 9 -10 0 -24 7 -31 15 -7 8 -16 12 -21 9 -5
-3 -9 0 -9 6 0 6 -5 8 -10 5 -5 -3 -10 -1 -10 5 0 6 -5 8 -12 4 -7 -5 -9 0 -6
14 5 19 3 20 -13 11 -10 -5 -19 -7 -19 -3 0 11 42 44 55 44 7 0 15 7 19 15 3
8 12 12 21 9 8 -4 15 -1 15 6 0 9 4 9 17 -1 11 -10 14 -10 9 -1 -5 8 2 15 18
22 14 5 26 15 26 21 0 8 6 7 17 -2 11 -9 14 -10 10 -2 -5 8 1 15 18 19 13 3
22 10 19 15 -5 9 9 13 33 10 8 -1 10 5 6 15 -4 11 -2 15 4 11 15 -9 44 3 37
14 -3 5 7 9 23 9 22 0 25 2 13 10 -13 8 -12 10 3 10 11 0 15 5 11 11 -4 7 0 9
14 5 11 -4 23 -2 27 4 3 6 11 7 17 4 7 -4 8 -2 4 4 -7 12 47 45 58 35 3 -4 6
-1 6 6 0 7 6 11 14 8 16 -6 50 26 39 37 -4 4 1 4 11 0 13 -5 17 -4 12 4 -3 6
-1 14 5 18 8 4 9 3 5 -4 -4 -7 -2 -12 4 -12 6 0 13 6 16 14 3 8 12 17 20 20 9
4 12 2 8 -5 -3 -6 3 -5 15 2 14 10 17 15 8 21 -13 8 3 12 32 9 7 -2 10 2 7 7
-3 6 1 13 10 16 10 4 13 2 8 -7 -6 -9 -5 -9 8 0 8 7 18 10 21 7 4 -4 5 3 2 15
-3 19 -1 20 17 10 16 -9 19 -8 13 2 -6 9 -3 11 9 6 10 -4 15 -3 11 3 -6 9 16
15 39 11 5 -1 3 6 -5 15 -10 13 -10 16 -1 10 8 -5 22 -1 34 11 14 12 18 13 13
3 -8 -13 -7 -13 8 -1 9 7 17 10 17 5 1 -5 10 2 20 15 11 13 20 20 20 16 0 -4
8 1 18 12 9 10 15 14 12 8 -3 -6 2 -4 10 5 9 9 22 14 29 12 9 -3 11 0 6 8 -6
10 -4 12 8 7 13 -5 17 -1 17 14 0 11 5 17 10 14 6 -4 8 -11 5 -16 -4 -5 -4 -9
-1 -9 3 0 13 12 21 28 9 15 14 20 12 11 -3 -9 1 -16 8 -16 8 0 11 7 7 15 -4
11 0 14 16 10 15 -4 19 -2 15 8 -5 12 13 19 39 15 5 0 7 5 5 12 -1 7 6 11 17
9 12 -2 16 1 10 9 -5 9 -2 10 10 6 13 -5 17 -3 13 6 -3 8 3 14 16 14 11 1 23
6 26 11 3 5 16 12 29 16 13 4 19 12 16 18 -5 7 -1 9 9 5 10 -3 17 -2 17 3 0 6
7 10 16 10 8 0 13 4 10 9 -4 5 3 7 14 4 15 -4 20 0 20 13 0 15 2 16 9 5 7 -11
11 -10 20 6 6 12 18 23 26 27 9 3 13 2 10 -4 -3 -6 1 -7 10 -4 9 4 14 13 11
20 -3 8 0 11 10 7 7 -3 14 0 14 7 0 7 6 10 14 7 8 -3 17 1 20 9 3 8 13 14 21
14 9 0 14 4 11 9 -3 5 1 11 9 14 10 4 12 1 8 -11 -4 -13 -2 -12 10 3 8 11 13
24 10 28 -3 5 4 6 15 3 15 -5 24 -1 32 14 6 11 16 20 23 20 7 0 6 -4 -3 -10
-9 -6 -10 -10 -3 -10 6 0 18 9 26 20 8 11 17 17 20 13 4 -3 7 -1 7 6 0 7 5 9
10 6 6 -3 10 -1 10 4 0 6 7 11 15 11 9 0 18 7 21 15 4 8 10 15 16 15 5 0 6 -6
2 -12 -4 -8 -3 -10 2 -5 5 5 9 14 9 20 1 7 6 11 13 10 7 -2 12 2 12 8 0 5 5 7
10 4 6 -3 10 1 10 11 0 14 2 15 18 3 9 -7 14 -9 10 -5 -11 13 22 34 44 28 10
-2 18 -12 18 -21z m1260 -1251 c0 -5 -2 -10 -4 -10 -3 0 -8 5 -11 10 -3 6 -1
10 4 10 6 0 11 -4 11 -10z m-3446 -636 c3 -8 2 -12 -4 -9 -6 3 -10 10 -10 16
0 14 7 11 14 -7z m0 -820 c3 -8 2 -12 -4 -9 -6 3 -10 10 -10 16 0 14 7 11 14
-7z m3737 -687 c-10 -9 -11 -8 -5 6 3 10 9 15 12 12 3 -3 0 -11 -7 -18z
m-3056 -37 c3 -5 1 -10 -4 -10 -6 0 -11 5 -11 10 0 6 2 10 4 10 3 0 8 -4 11
-10z"/>
<path d="M2455 4060 c3 -13 -1 -16 -16 -13 -10 3 -19 1 -19 -3 0 -5 -9 -15
-21 -22 -12 -8 -18 -9 -15 -3 4 7 1 8 -8 5 -9 -3 -14 -10 -11 -14 8 -13 -22
-19 -34 -7 -9 9 -11 8 -6 -5 5 -12 2 -18 -8 -18 -8 0 -17 -5 -19 -11 -2 -5
-12 -12 -23 -13 -11 -2 -19 -9 -17 -16 1 -6 -2 -9 -8 -5 -5 3 -10 2 -10 -4 0
-6 -6 -8 -14 -5 -8 3 -17 0 -22 -7 -5 -8 -3 -10 6 -4 9 5 11 4 6 -4 -6 -9 -11
-9 -22 0 -9 7 -14 8 -13 3 4 -23 -3 -33 -21 -29 -11 2 -18 0 -15 -6 4 -5 -4
-9 -17 -9 -18 0 -20 -2 -8 -10 13 -8 12 -10 -5 -11 -11 -1 -24 -1 -28 0 -4 1
-10 -6 -13 -14 -5 -12 -9 -13 -21 -4 -8 7 -13 8 -12 3 1 -5 1 -15 0 -23 -1
-11 -4 -11 -18 0 -11 10 -14 10 -9 2 4 -8 1 -13 -9 -13 -10 0 -13 -5 -9 -12 5
-7 0 -9 -14 -6 -12 3 -20 2 -19 -2 1 -4 -2 -8 -7 -8 -5 0 -12 -4 -15 -9 -3 -4
-15 -15 -25 -23 -18 -13 -19 -13 -12 0 4 8 1 7 -7 -3 -9 -10 -19 -18 -24 -19
-4 0 -7 -4 -5 -10 1 -5 -6 -7 -18 -3 -15 5 -22 1 -29 -17 -6 -13 -10 -17 -10
-10 -1 10 -5 10 -17 -2 -8 -9 -20 -13 -26 -10 -7 5 -8 2 -3 -6 6 -10 4 -12 -9
-7 -10 4 -15 3 -11 -3 3 -6 1 -10 -5 -10 -6 0 -8 -5 -4 -12 5 -7 3 -8 -5 -4
-7 5 -19 0 -27 -10 -9 -11 -13 -13 -9 -6 3 6 2 12 -3 12 -6 0 -12 -7 -16 -15
-3 -8 -15 -15 -26 -15 -14 0 -19 -4 -14 -12 5 -7 3 -8 -5 -4 -7 5 -19 0 -27
-10 -9 -11 -12 -12 -8 -4 7 12 5 13 -8 3 -8 -7 -18 -9 -22 -5 -4 4 -6 1 -4 -7
2 -8 -7 -17 -20 -20 -13 -3 -23 -9 -23 -13 2 -19 0 -20 -16 -7 -11 10 -14 10
-9 2 6 -12 -5 -18 -26 -14 -5 0 -7 -4 -5 -11 1 -7 -5 -13 -13 -13 -8 0 -14 -6
-13 -12 2 -7 -6 -10 -17 -8 -11 2 -20 -1 -20 -6 0 -6 -4 -8 -9 -5 -5 3 -12 -1
-15 -9 -3 -8 -11 -14 -18 -13 -7 2 -12 -2 -11 -9 2 -7 -4 -10 -12 -7 -8 4 -15
1 -15 -4 0 -6 -9 -9 -19 -7 -14 2 -18 -1 -15 -10 4 -9 -2 -13 -19 -11 -15 2
-24 -1 -21 -8 2 -6 -7 -16 -21 -23 -16 -7 -23 -7 -18 -1 4 7 1 8 -6 4 -7 -5
-10 -14 -7 -22 4 -11 1 -12 -12 -5 -14 7 -23 5 -35 -10 -9 -10 -13 -19 -9 -19
4 0 0 -5 -8 -10 -8 -5 -15 -23 -16 -39 -1 -17 2 -28 7 -26 8 6 4 -28 -5 -44
-4 -5 0 -12 6 -14 10 -4 9 -6 -1 -6 -10 -1 -11 -4 -2 -15 8 -10 9 -16 1 -21
-5 -3 -10 -11 -10 -16 0 -6 6 -7 13 -3 8 5 8 2 -2 -9 -11 -14 -11 -17 0 -17 8
0 6 -5 -6 -13 -14 -11 -15 -16 -5 -22 9 -6 11 -4 5 5 -5 8 -4 11 3 6 6 -4 9
-13 6 -21 -4 -8 -10 -12 -15 -9 -5 3 -6 -2 -3 -10 3 -9 10 -13 15 -10 5 3 6
-2 3 -10 -3 -9 -9 -14 -13 -12 -3 2 -6 -24 -6 -59 0 -35 3 -61 6 -59 4 2 9 -3
12 -11 4 -10 1 -12 -11 -8 -15 6 -15 5 -3 -10 7 -9 9 -17 4 -17 -11 0 -11 -29
1 -48 4 -7 2 -12 -5 -12 -8 0 -7 -5 2 -17 8 -9 9 -14 3 -10 -7 4 -15 0 -18 -9
-4 -9 -2 -13 5 -8 8 5 10 -3 7 -25 -3 -18 -1 -34 3 -36 4 -3 5 -14 2 -25 -3
-11 -9 -17 -14 -14 -5 3 -6 -2 -3 -10 3 -9 11 -13 17 -9 6 3 7 1 3 -6 -12 -19
-15 -82 -4 -75 6 4 6 -1 -1 -13 -6 -11 -7 -23 -4 -27 10 -10 11 -46 1 -40 -13
8 -10 -10 4 -25 7 -8 8 -11 3 -8 -12 6 -13 -33 -1 -51 4 -7 3 -12 -2 -12 -10
0 -9 -30 2 -48 4 -6 4 -12 -1 -12 -4 0 -8 -31 -8 -69 0 -40 4 -67 9 -63 6 3 6
-3 2 -14 -5 -10 -9 -31 -11 -46 -2 -20 1 -25 14 -21 13 4 13 2 -2 -10 -16 -14
-16 -16 -2 -31 9 -9 12 -16 7 -16 -17 0 -22 -29 -7 -44 11 -11 12 -15 2 -19
-9 -3 -9 -7 0 -19 7 -8 9 -18 5 -22 -10 -11 -9 -30 3 -38 6 -5 5 -8 -3 -8 -8
0 -10 -5 -5 -12 11 -19 13 -39 2 -32 -5 3 -9 0 -9 -5 0 -6 5 -11 11 -11 6 0 7
-5 2 -12 -11 -19 -12 -37 -2 -44 5 -3 9 -16 9 -29 0 -13 5 -27 12 -31 7 -5 8
-2 3 7 -5 8 3 4 17 -8 13 -13 31 -23 40 -23 9 0 18 -4 20 -10 2 -5 14 -11 28
-13 14 -2 30 -14 36 -25 6 -12 14 -19 17 -15 4 3 19 -4 33 -18 22 -21 24 -21
19 -4 -6 18 -6 18 5 2 6 -9 16 -14 22 -11 7 5 8 2 4 -5 -5 -8 0 -14 13 -18 11
-3 18 -9 15 -14 -3 -5 3 -6 12 -2 13 5 15 3 9 -7 -6 -9 -4 -11 5 -5 8 5 18 1
27 -10 10 -14 13 -15 14 -4 0 8 5 3 10 -11 8 -20 12 -22 19 -10 8 13 10 13 10
0 0 -9 9 -16 20 -17 19 -2 31 -9 71 -45 10 -10 19 -13 19 -8 0 6 6 5 14 -2 8
-7 11 -17 8 -23 -3 -5 2 -4 11 4 11 9 17 10 17 2 0 -6 7 -11 16 -11 9 0 12 -5
8 -11 -5 -8 1 -10 19 -7 18 4 24 1 20 -9 -5 -12 8 -18 30 -14 5 1 6 -3 3 -8
-4 -5 4 -11 16 -13 13 -2 22 -8 21 -14 -1 -5 10 -11 25 -12 15 -1 37 -13 50
-27 12 -14 30 -25 38 -25 9 0 12 -5 8 -12 -4 -6 -3 -8 4 -5 13 9 44 -2 37 -13
-3 -5 -1 -11 5 -15 5 -3 10 0 10 7 1 8 6 6 15 -6 7 -10 19 -15 25 -11 7 4 14
-1 17 -13 3 -14 12 -19 29 -17 13 1 21 -1 19 -6 -3 -4 4 -11 16 -14 12 -4 18
-12 15 -21 -5 -12 -2 -12 15 -3 11 6 23 8 27 5 3 -3 2 -6 -2 -6 -4 0 -1 -7 8
-15 8 -8 20 -15 26 -15 6 0 8 -5 4 -12 -5 -9 -2 -9 9 1 12 9 17 10 17 2 0 -7
5 -9 10 -6 6 3 10 -1 10 -10 0 -9 4 -14 9 -10 5 3 16 -1 24 -9 8 -8 17 -12 21
-9 3 4 6 -2 6 -13 0 -16 2 -17 10 -4 8 13 10 12 10 -3 0 -10 4 -15 10 -12 6 3
10 1 10 -6 0 -8 4 -8 15 1 13 11 14 10 9 -5 -5 -13 -4 -16 4 -11 7 4 12 2 12
-5 0 -6 8 -9 19 -6 15 3 18 1 14 -11 -5 -12 -2 -14 12 -9 16 7 16 5 4 -10 -12
-15 -12 -16 3 -10 10 3 20 2 23 -3 4 -6 40 -7 40 0 0 1 8 3 18 5 11 2 15 -1
10 -8 -8 -14 26 11 45 33 12 13 13 13 6 0 -4 -8 3 -5 16 8 12 13 28 21 35 18
7 -2 21 6 31 19 15 20 21 22 33 12 12 -10 14 -9 8 6 -5 13 -3 17 5 14 7 -2 18
5 25 17 7 12 12 15 13 8 0 -8 11 -3 26 12 15 13 33 22 39 19 7 -2 16 1 21 8 5
8 3 10 -6 4 -9 -6 -11 -4 -6 4 5 7 14 10 22 7 8 -3 14 -1 14 5 0 6 4 8 9 5 5
-3 12 1 15 10 4 9 13 14 21 10 8 -3 14 -2 14 2 -3 19 2 25 11 12 8 -13 10 -13
10 2 0 10 5 15 13 12 8 -3 20 2 27 11 7 8 19 15 26 15 8 0 14 4 14 9 0 6 9 8
20 6 11 -2 19 1 17 8 -1 6 5 11 13 12 8 1 14 6 13 11 -1 6 5 11 13 12 7 1 21
3 28 4 8 1 15 4 14 7 -2 20 3 31 12 26 5 -3 20 0 32 7 13 7 26 11 31 10 4 -1
6 4 5 10 -2 7 3 12 10 10 6 -1 12 3 12 9 0 5 5 7 10 4 6 -3 13 0 16 9 3 8 12
12 20 9 9 -3 14 0 12 8 -2 9 4 13 16 11 10 -2 15 1 12 6 -3 6 1 13 10 16 10 4
13 2 9 -7 -4 -6 3 -1 14 12 13 14 21 18 21 10 1 -10 3 -9 10 2 5 9 23 22 40
29 18 7 27 17 23 24 -4 6 0 6 9 -2 13 -10 17 -10 22 4 4 10 13 14 26 11 11 -3
19 -2 18 2 -2 19 3 31 11 26 5 -3 13 0 17 6 4 8 9 7 15 -2 6 -10 9 -8 9 8 0
17 5 21 21 18 14 -3 19 0 16 9 -3 7 1 13 9 13 7 0 11 -5 8 -11 -3 -6 1 -3 9 6
8 10 17 15 20 11 4 -3 7 -1 7 5 0 6 10 17 23 23 21 12 21 11 7 -6 -14 -17 -14
-17 7 -5 12 8 19 18 17 22 -5 8 11 12 30 9 5 -1 6 4 3 12 -3 7 1 14 9 14 7 0
11 -5 8 -11 -3 -6 2 -2 11 9 9 11 21 19 26 17 5 -1 12 5 16 14 5 13 7 13 14 2
7 -10 9 -9 9 4 0 9 5 20 12 24 7 5 8 2 3 -7 -5 -8 4 -3 18 10 30 27 37 42 10
20 -15 -12 -16 -12 -9 6 4 11 9 32 10 47 2 23 0 25 -12 15 -12 -9 -11 -5 2 21
10 19 12 32 6 32 -6 0 -8 5 -5 10 3 6 0 10 -7 10 -8 0 -9 3 -3 8 16 11 19 45
3 37 -10 -6 -11 -5 0 6 15 16 16 33 0 23 -7 -5 -8 -3 -2 7 14 24 16 51 2 43
-9 -5 -9 -2 1 9 9 12 10 17 2 17 -7 0 -9 5 -6 10 4 6 12 7 18 3 7 -4 5 1 -3
12 -18 22 -18 18 -1 39 12 14 12 16 -3 10 -12 -5 -15 -2 -10 10 3 9 11 13 18
9 7 -4 7 -2 -1 8 -7 9 -11 25 -8 37 2 12 -1 22 -6 22 -6 0 -7 5 -4 10 4 6 12
7 18 3 7 -3 3 4 -8 17 -11 13 -15 20 -8 17 8 -5 11 0 10 13 -1 11 -6 20 -12
20 -6 0 -7 3 0 8 13 9 15 72 3 72 -5 0 -6 5 -3 10 4 6 12 7 18 4 9 -5 9 -4 0
6 -6 7 -9 19 -6 28 5 11 3 13 -8 7 -12 -8 -12 -6 0 8 9 12 10 17 2 17 -7 0 -9
5 -6 10 4 6 12 7 18 3 7 -4 6 0 -2 10 -7 9 -10 17 -5 17 5 0 2 5 -6 10 -10 6
-11 10 -3 10 9 0 10 7 3 24 -6 17 -5 26 3 29 8 3 9 8 2 18 -9 13 -11 32 -5 52
6 19 6 33 -2 44 -5 6 -5 14 2 18 5 3 10 11 10 16 0 6 -6 7 -12 3 -9 -5 -9 -2
1 9 11 14 11 17 0 17 -9 0 -10 3 -4 8 16 11 19 46 3 36 -10 -6 -10 -4 1 9 8
11 10 22 5 30 -9 11 -10 31 -4 50 6 19 6 33 -2 44 -5 6 -5 14 2 18 5 3 10 11
10 16 0 6 -6 7 -12 3 -9 -5 -9 -2 1 9 11 14 11 17 0 17 -12 0 -12 2 -1 9 17
11 17 21 0 32 -10 6 -8 9 7 9 14 0 16 3 8 8 -13 8 -24 67 -15 77 9 9 13 47 4
41 -4 -2 -8 4 -8 14 0 10 4 17 8 14 3 -2 3 9 -2 25 -5 19 -4 33 3 40 8 8 7 11
-2 11 -10 0 -11 3 -2 13 6 8 7 17 3 21 -10 11 -9 30 3 38 5 4 1 8 -10 8 -11 0
-27 9 -35 20 -10 14 -16 16 -22 7 -6 -9 -8 -9 -8 1 0 8 -5 10 -12 6 -8 -5 -7
0 2 11 14 17 14 18 -8 6 -18 -9 -22 -9 -20 1 2 6 -3 13 -9 14 -7 1 -18 2 -24
3 -5 0 -7 6 -3 13 5 8 0 9 -14 6 -12 -4 -20 -2 -16 3 3 5 -2 9 -10 9 -9 0 -16
5 -16 11 0 5 -4 7 -10 4 -5 -3 -10 -1 -10 5 0 6 -4 8 -10 5 -5 -3 -10 -2 -10
4 0 6 -7 8 -15 4 -10 -3 -15 0 -13 8 2 8 -7 15 -19 17 -13 2 -23 8 -23 13 0 5
-5 9 -11 9 -7 0 -18 8 -26 18 -10 11 -12 12 -8 2 4 -10 1 -9 -8 3 -9 11 -22
15 -33 11 -16 -5 -16 -4 -4 5 8 6 12 11 8 12 -5 1 -12 3 -18 4 -5 1 -15 3 -21
4 -5 0 -7 7 -3 14 4 6 4 9 -1 5 -4 -4 -15 -2 -23 5 -13 10 -15 9 -8 -3 4 -8
-1 -5 -10 8 -16 22 -41 32 -28 11 5 -8 1 -8 -14 0 -12 6 -25 17 -29 24 -12 18
-49 46 -39 29 7 -11 4 -12 -13 -3 -11 7 -21 14 -21 17 0 3 6 2 13 -2 7 -4 9
-3 4 2 -5 5 -12 9 -15 9 -4 0 -13 4 -19 8 -7 5 -13 5 -13 2 0 -3 -6 0 -14 7
-8 7 -11 18 -8 23 2 6 -1 5 -8 -2 -11 -10 -18 -7 -39 15 -20 21 -23 23 -18 7
6 -18 5 -18 -12 3 -11 12 -24 22 -30 22 -6 0 -11 6 -11 13 0 9 -2 9 -8 0 -5
-8 -15 -3 -31 18 -17 22 -27 27 -36 19 -10 -8 -18 -4 -34 16 -13 16 -26 24
-36 20 -9 -3 -14 -2 -12 2 3 4 -1 13 -9 20 -8 7 -14 8 -14 3 0 -6 -12 1 -26
14 -15 14 -30 22 -35 19 -5 -3 -12 2 -15 10 -3 9 -10 13 -15 10 -5 -3 -9 0 -9
5 0 6 -6 10 -12 9 -7 -2 -12 3 -11 9 2 7 0 12 -5 12 -21 -4 -32 2 -26 14 5 9
4 9 -6 0 -10 -9 -18 -6 -39 13 -14 13 -31 24 -38 24 -6 0 -15 5 -19 12 -5 7
-3 8 6 3 9 -5 11 -4 6 4 -4 6 -11 9 -16 6 -13 -8 -41 6 -33 18 4 6 1 7 -7 2
-8 -5 -17 -2 -24 6 -10 14 -76 49 -91 49 -3 0 -3 -5 1 -12 5 -7 3 -8 -7 -2
-24 15 -38 13 -34 -6z m93 -161 c2 -5 10 -9 18 -9 8 0 14 -3 14 -8 0 -4 9 -13
21 -20 17 -11 20 -11 14 0 -3 7 1 4 9 -6 9 -11 16 -16 16 -12 0 4 7 0 16 -8 8
-9 21 -13 27 -9 7 4 6 -1 -2 -10 -12 -15 -12 -17 3 -11 11 4 23 -1 32 -12 9
-11 13 -12 9 -4 -4 10 -2 9 8 -2 8 -10 17 -15 20 -11 4 3 13 1 20 -5 8 -7 18
-8 22 -4 5 4 6 3 3 -3 -3 -5 0 -15 7 -22 11 -10 15 -10 18 0 3 7 6 3 6 -7 1
-11 4 -16 8 -13 3 4 13 -2 20 -13 10 -14 21 -19 33 -15 10 3 22 0 26 -6 5 -8
3 -9 -6 -4 -9 5 -11 4 -6 -4 6 -9 11 -9 22 0 9 7 14 8 13 3 -3 -20 2 -32 17
-38 15 -6 15 -4 3 11 -8 10 3 6 23 -9 23 -18 43 -26 55 -22 10 3 14 2 8 -3
-14 -11 -17 -33 -5 -33 5 0 10 6 11 13 0 10 2 10 6 0 2 -7 9 -13 15 -13 6 0
17 -8 25 -17 8 -10 11 -12 8 -5 -6 11 -3 12 14 3 11 -7 21 -14 21 -17 0 -3 -5
-2 -12 2 -6 4 -8 3 -4 -4 3 -6 16 -9 27 -7 15 3 19 0 15 -10 -3 -9 0 -12 10
-8 7 3 14 1 14 -5 0 -5 11 -13 25 -16 13 -3 40 -20 60 -37 19 -17 39 -28 45
-24 5 3 10 1 10 -5 0 -6 4 -9 9 -6 5 3 12 -1 15 -10 5 -13 9 -14 21 -4 13 11
14 10 10 -3 -4 -8 -1 -18 6 -23 8 -5 10 -3 4 7 -7 11 -5 11 11 -1 10 -8 21
-17 24 -20 3 -3 14 -12 25 -20 19 -14 19 -14 6 3 -8 10 -9 17 -3 17 6 0 13 -9
17 -19 4 -13 12 -18 22 -14 11 4 14 2 9 -5 -4 -7 -1 -12 9 -12 9 0 13 -5 9
-11 -4 -8 0 -8 15 0 17 10 20 9 15 -4 -5 -11 -2 -14 12 -8 12 4 15 3 10 -5 -4
-7 -1 -12 9 -12 9 0 14 -4 10 -9 -3 -6 4 -8 15 -6 12 2 20 -1 20 -10 0 -8 8
-12 20 -10 13 2 20 -2 20 -11 0 -8 3 -13 8 -13 19 3 33 -2 27 -11 -3 -5 0 -7
8 -4 8 3 18 1 22 -5 3 -6 0 -11 -7 -11 -10 0 -9 -3 2 -9 8 -6 19 -7 25 -4 5 4
2 -3 -8 -14 -13 -14 -15 -23 -7 -28 8 -5 8 -11 -1 -21 -9 -11 -9 -14 1 -14 9
0 9 -4 2 -13 -6 -7 -7 -18 -3 -26 11 -17 2 -53 -12 -44 -6 4 -7 1 -1 -8 7 -11
10 -172 3 -205 -1 -5 0 -11 1 -14 7 -18 5 -50 -3 -50 -5 0 -4 -7 4 -16 10 -13
10 -17 0 -24 -9 -5 -10 -10 -2 -14 6 -4 7 -16 3 -29 -5 -12 -7 -33 -5 -47 5
-38 3 -102 -4 -113 -4 -6 1 -8 13 -4 18 7 18 6 1 -7 -11 -8 -14 -17 -8 -20 10
-6 8 -37 -4 -56 -3 -6 -1 -10 5 -10 6 0 8 -5 4 -11 -8 -14 -8 -165 1 -179 3
-5 0 -10 -7 -10 -9 0 -9 -3 2 -10 8 -5 11 -10 5 -10 -5 0 -10 -22 -10 -49 0
-41 2 -47 14 -38 11 9 10 4 -2 -19 -14 -27 -14 -34 -3 -50 12 -15 11 -22 -3
-43 -9 -15 -11 -22 -3 -18 6 5 12 4 12 -2 0 -5 -6 -12 -12 -14 -8 -3 -6 -6 5
-6 9 -1 17 -6 17 -12 0 -5 -4 -7 -10 -4 -6 4 -9 -14 -9 -48 1 -30 -2 -60 -6
-67 -6 -9 -4 -11 5 -5 9 6 10 2 5 -16 -4 -13 -12 -28 -18 -34 -7 -7 -7 -5 -2
4 5 9 -2 7 -17 -5 -14 -10 -24 -22 -21 -26 2 -5 -3 -8 -12 -8 -10 0 -13 -5 -9
-12 5 -9 2 -9 -9 1 -15 12 -17 11 -17 -3 0 -10 -4 -14 -10 -11 -5 3 -10 2 -10
-3 0 -13 -76 -53 -84 -45 -3 4 -6 1 -6 -5 0 -7 -4 -11 -9 -10 -5 2 -17 -6 -25
-17 -9 -12 -15 -15 -16 -7 0 7 -5 10 -10 7 -6 -4 -8 -11 -5 -16 4 -5 -3 -9
-15 -9 -14 0 -19 -4 -14 -12 5 -8 1 -8 -12 2 -10 8 -16 11 -12 6 4 -5 2 -13
-5 -20 -22 -20 -74 -46 -81 -39 -3 3 -6 1 -6 -5 0 -7 -5 -12 -11 -12 -6 0 -17
-7 -25 -15 -8 -8 -21 -12 -29 -9 -9 4 -18 -1 -21 -11 -4 -9 -13 -14 -21 -11
-9 4 -11 2 -7 -6 5 -8 2 -9 -10 -5 -9 4 -15 3 -13 -1 3 -4 -1 -13 -9 -20 -9
-8 -14 -9 -14 -2 0 6 -5 8 -10 5 -6 -4 -8 -11 -5 -16 6 -8 -8 -13 -27 -10 -5
0 -8 -7 -8 -16 0 -15 -2 -16 -10 -3 -8 12 -10 12 -10 1 0 -8 -3 -11 -7 -8 -3
4 -12 -2 -20 -13 -8 -12 -20 -17 -30 -13 -12 5 -14 3 -8 -7 6 -10 4 -12 -8 -7
-9 3 -21 -1 -29 -11 -12 -16 -11 -16 7 -2 15 11 17 11 8 0 -7 -7 -23 -15 -35
-17 -12 -2 -27 -11 -31 -19 -8 -14 -11 -14 -18 -3 -7 11 -9 10 -9 -4 0 -10 -4
-16 -9 -13 -4 3 -16 -3 -26 -14 -10 -11 -25 -20 -34 -20 -9 0 -25 -7 -35 -15
-10 -8 -23 -12 -28 -9 -5 3 -8 2 -7 -3 1 -4 1 -15 0 -23 -1 -13 -2 -13 -12 0
-8 11 -12 12 -16 2 -2 -6 -9 -10 -14 -6 -5 3 -8 0 -7 -8 2 -7 -4 -13 -12 -13
-8 0 -20 -6 -26 -14 -6 -8 -16 -11 -23 -7 -6 4 -11 4 -10 -1 3 -20 -2 -27 -11
-13 -9 13 -10 13 -10 0 0 -8 -19 -28 -42 -44 -23 -17 -38 -23 -33 -15 7 11 6
12 -6 3 -21 -17 -79 -15 -86 2 -3 7 -9 11 -14 8 -5 -3 -9 0 -9 5 0 6 -6 10
-12 9 -7 -2 -12 3 -10 10 1 6 -2 12 -8 12 -5 0 -10 -6 -10 -12 -1 -7 -7 -2
-15 12 -8 14 -14 21 -15 16 0 -5 -8 -2 -17 6 -28 24 -47 33 -38 19 5 -9 1 -9
-14 1 -12 7 -21 20 -22 28 0 10 -2 11 -6 2 -3 -9 -9 -7 -21 6 -10 10 -12 11
-7 2 6 -8 -7 0 -28 18 -21 18 -42 30 -47 27 -4 -3 -10 2 -13 10 -4 8 -15 12
-26 10 -15 -3 -18 0 -14 13 3 9 3 14 -2 10 -9 -8 -85 28 -85 41 0 5 -7 12 -16
15 -12 5 -14 3 -8 -7 5 -7 2 -5 -8 5 -9 10 -21 18 -27 18 -6 0 -11 5 -11 11 0
5 -4 7 -10 4 -5 -3 -10 -1 -10 6 0 7 -3 9 -7 6 -3 -4 -12 1 -20 11 -8 9 -12
11 -8 5 4 -9 1 -11 -10 -7 -9 4 -14 13 -10 22 4 12 3 13 -10 2 -11 -9 -15 -9
-15 -1 0 7 -4 10 -8 7 -5 -3 -15 4 -22 14 -11 16 -17 17 -29 7 -9 -7 -12 -8
-8 -1 3 6 -5 16 -19 23 -14 6 -22 16 -19 21 4 6 -4 9 -17 7 -15 -1 -22 3 -20
11 1 8 -2 11 -7 8 -5 -4 -16 0 -24 8 -8 8 -18 12 -23 8 -5 -4 -8 -5 -7 -3 6 9
-42 41 -54 36 -8 -2 -11 0 -8 5 3 6 -2 10 -12 10 -10 0 -25 9 -33 19 -7 11
-17 18 -22 15 -4 -3 -8 0 -8 6 0 6 -4 8 -10 5 -5 -3 -10 2 -10 12 0 14 -2 15
-9 5 -7 -11 -9 -11 -14 2 -4 9 -16 16 -27 16 -11 0 -23 7 -27 16 -3 8 -12 13
-20 10 -7 -3 -16 1 -19 9 -4 8 -11 15 -16 15 -6 0 -17 8 -24 18 -13 16 -14 16
-8 -3 4 -11 -6 -3 -20 18 -15 20 -31 37 -37 37 -6 0 -7 5 -4 10 3 6 1 10 -4
10 -6 0 -11 5 -11 11 0 5 5 7 11 3 8 -4 8 0 0 15 -8 15 -9 27 -1 40 7 14 7 22
-2 27 -7 5 -8 3 -3 -6 5 -8 4 -11 -3 -6 -6 4 -9 13 -6 21 4 8 11 12 17 8 6 -4
7 -1 2 7 -13 21 -13 63 -1 79 7 9 7 13 1 9 -7 -4 -11 9 -12 35 -2 29 1 37 7
27 7 -12 9 -10 7 7 0 12 -5 19 -9 17 -4 -3 -4 6 2 20 8 21 6 26 -6 26 -14 0
-14 2 0 16 17 17 21 29 8 20 -11 -7 -8 46 3 64 6 9 4 11 -5 5 -9 -5 -10 -2 -5
15 11 36 13 70 3 70 -5 0 -6 4 -3 10 11 18 12 79 1 73 -6 -4 -5 1 3 10 13 16
8 22 -14 17 -5 -1 -1 9 10 21 11 12 15 20 9 16 -7 -4 -10 13 -8 51 1 31 3 57
4 57 1 0 3 10 4 22 1 12 -1 20 -6 17 -4 -3 -8 -1 -8 5 0 5 5 13 10 16 7 4 6
13 -1 27 -8 15 -8 19 0 14 6 -4 11 -2 11 3 0 6 -5 11 -11 11 -6 0 -7 5 -2 13
11 18 13 38 2 31 -5 -3 -8 4 -6 16 2 12 9 25 16 29 10 6 8 10 -4 15 -14 5 -15
9 -5 21 10 12 10 15 -1 15 -10 0 -10 3 -1 12 7 7 12 17 12 23 0 5 -4 4 -8 -3
-5 -8 -9 9 -9 40 -1 29 3 58 8 65 7 7 6 14 -2 19 -8 5 -9 3 -4 -6 6 -9 4 -11
-5 -5 -10 6 -9 11 5 22 11 7 14 13 9 13 -12 0 -12 90 0 109 6 9 5 12 -2 8 -6
-5 -8 0 -5 13 3 11 10 17 17 13 7 -4 6 -1 -1 9 -11 13 -7 18 27 34 22 10 40
23 40 28 0 4 7 5 16 2 8 -3 13 -2 10 3 -3 5 8 14 24 21 17 7 30 16 30 21 0 5
7 6 15 3 8 -4 15 -1 15 5 0 7 8 15 18 18 9 4 23 14 30 22 8 9 11 11 8 4 -4 -6
-2 -15 4 -18 6 -4 10 -3 9 2 -4 21 2 34 12 27 6 -3 14 -2 18 5 4 6 19 12 33
13 15 1 24 6 22 10 -3 5 -9 6 -14 3 -5 -3 -11 -1 -14 4 -4 5 2 8 11 7 10 -2
34 9 52 23 19 14 32 20 27 14 -4 -7 -2 -13 3 -13 10 0 15 14 12 33 -1 4 8 3
20 -4 16 -8 20 -8 14 1 -4 7 1 13 14 17 12 3 21 9 21 13 0 7 33 22 56 24 17 2
44 27 39 36 -2 4 3 7 13 7 34 0 43 3 37 13 -3 6 1 10 9 10 9 0 16 6 16 13 0 8
4 7 10 -3 8 -13 10 -12 10 4 0 11 3 16 7 13 3 -4 18 3 32 15 14 13 19 15 12 5
-8 -9 -11 -20 -7 -24 3 -3 6 -2 6 3 0 20 43 56 61 51 10 -3 18 -2 17 2 -2 19
3 31 12 26 5 -3 20 3 32 15 16 15 24 17 30 8 6 -10 8 -9 8 3 0 9 7 20 16 23
10 4 13 2 9 -7 -4 -6 1 -3 10 8 14 17 17 18 26 5 8 -12 9 -11 7 5 -2 15 3 20
19 19 12 0 21 4 20 10 -1 6 4 10 11 9 6 -2 12 3 12 11 0 8 7 17 16 20 12 5 14
3 8 -7 -5 -7 2 -1 15 13 13 14 20 18 16 10 -4 -8 4 -3 17 12 17 19 28 24 35
17 8 -8 13 -7 18 2 6 8 4 10 -5 4 -9 -5 -11 -4 -6 3 4 7 14 12 22 12 8 0 14 5
14 11 0 6 5 9 12 7 6 -2 20 4 29 13 18 18 71 17 77 -2z m-718 -373 c0 -3 -4
-8 -10 -11 -5 -3 -10 -1 -10 4 0 6 5 11 10 11 6 0 10 -2 10 -4z m1480 -66 c0
-5 -2 -10 -4 -10 -3 0 -8 5 -11 10 -3 6 -1 10 4 10 6 0 11 -4 11 -10z m-2185
-1229 c3 -5 2 -12 -3 -15 -5 -3 -9 1 -9 9 0 17 3 19 12 6z m2065 -935 c0 -2
-7 -7 -16 -10 -8 -3 -12 -2 -9 4 6 10 25 14 25 6z"/>
<path d="M1746 3064 c-9 -8 -16 -11 -16 -5 0 6 -5 11 -11 11 -5 0 -8 -4 -5 -8
3 -5 -1 -9 -9 -9 -8 0 -12 4 -9 9 3 4 -2 8 -11 8 -9 0 -14 -4 -11 -8 3 -5 -1
-9 -9 -9 -8 0 -12 4 -9 9 3 4 -2 8 -11 8 -9 0 -14 -4 -11 -8 3 -5 -1 -9 -9 -9
-8 0 -12 4 -9 8 2 4 -4 7 -15 6 -11 0 -17 -5 -14 -11 4 -5 -1 -7 -11 -3 -14 6
-15 4 -5 -16 11 -19 10 -20 -2 -10 -12 10 -15 8 -14 -13 0 -14 7 -29 15 -34
12 -8 12 -10 -5 -10 -17 0 -17 -2 -5 -10 11 -7 12 -10 2 -10 -10 0 -10 -4 2
-16 17 -16 21 -29 8 -20 -5 3 -9 -1 -9 -7 0 -7 12 -14 26 -15 14 -1 28 -7 32
-13 4 -8 8 -7 12 2 4 12 7 11 16 -1 7 -10 11 -11 11 -3 0 7 7 10 17 6 12 -5
14 -3 8 8 -5 8 -1 7 12 -3 11 -10 28 -18 39 -18 16 0 17 -2 4 -10 -8 -5 -10
-10 -4 -10 12 0 12 -109 0 -128 -4 -7 -3 -12 2 -12 5 0 9 -13 9 -30 0 -16 -4
-30 -9 -30 -5 0 -6 6 -2 13 4 6 3 9 -1 4 -5 -4 -9 -18 -10 -31 0 -19 3 -22 12
-15 9 8 11 5 10 -10 0 -11 -4 -18 -8 -15 -4 2 -9 -3 -12 -11 -4 -10 -1 -12 11
-8 15 6 15 5 3 -10 -8 -10 -9 -17 -3 -17 14 0 11 -52 -3 -62 -6 -5 -5 -11 4
-17 11 -7 11 -9 0 -14 -12 -5 -12 -6 0 -6 11 -1 11 -4 0 -18 -8 -9 -9 -14 -3
-10 13 7 11 -83 -2 -105 -5 -9 -2 -8 11 2 17 14 18 14 8 -5 -6 -11 -9 -28 -8
-38 3 -15 1 -16 -13 -5 -9 7 -13 8 -9 2 4 -7 0 -15 -9 -18 -21 -8 -36 -8 -31
2 3 4 -5 7 -18 7 -19 0 -21 -3 -12 -14 10 -12 9 -13 -8 -4 -11 6 -26 8 -34 5
-9 -3 -11 0 -6 7 5 9 1 8 -14 -1 -17 -10 -21 -21 -19 -48 2 -21 -3 -39 -11
-46 -11 -9 -12 -12 -1 -19 9 -6 11 -4 5 5 -5 9 -4 11 3 6 9 -5 7 -16 -5 -39
-14 -28 -14 -30 0 -19 13 11 15 10 10 -9 -4 -15 -3 -20 5 -15 7 4 12 1 12 -7
0 -15 47 -17 69 -3 9 6 12 5 7 -2 -4 -7 1 -10 14 -9 11 1 20 8 21 17 0 10 3 9
9 -5 6 -13 9 -15 9 -5 1 13 2 13 11 0 8 -13 11 -13 22 -1 11 11 11 13 -1 6
-10 -6 -12 -4 -6 5 6 10 11 9 21 -4 11 -16 13 -16 23 1 10 17 10 17 11 -1 0
-19 1 -19 13 -2 13 17 14 17 30 1 16 -15 21 -13 18 8 -1 4 7 4 16 -1 10 -5 30
-7 46 -6 17 2 25 -1 21 -8 -4 -6 1 -6 14 1 26 14 35 14 27 1 -4 -7 3 -7 20 0
35 13 54 13 35 -1 -12 -9 -12 -10 3 -5 10 3 21 6 23 6 3 0 2 5 -2 11 -5 8 -2
9 11 1 11 -6 30 -6 47 -1 17 5 26 4 23 -2 -4 -5 -1 -9 4 -9 6 0 11 5 11 11 0
5 5 7 10 4 6 -4 8 -12 4 -18 -3 -7 3 -2 14 10 11 12 23 19 27 15 4 -4 3 3 -3
14 -6 12 -9 24 -5 27 3 4 1 13 -5 20 -7 8 -9 17 -5 20 11 12 10 61 -1 76 -9
12 -8 13 3 6 9 -5 12 -4 7 3 -4 7 -25 10 -51 7 -25 -2 -45 1 -45 6 0 5 -5 9
-11 9 -5 0 -7 -5 -3 -12 4 -7 3 -8 -4 -4 -18 11 -53 16 -47 7 3 -5 -2 -12 -10
-15 -9 -3 -18 1 -21 9 -3 8 -12 11 -22 7 -15 -5 -16 -4 -2 13 8 10 10 16 3 12
-17 -11 -27 11 -13 28 7 8 8 15 3 15 -10 0 -11 56 0 66 3 4 3 14 -2 23 -10 21
-8 72 3 90 6 9 5 12 -1 8 -7 -5 -10 6 -8 31 3 47 31 51 61 7 12 -16 26 -29 32
-28 6 2 9 -6 7 -17 -3 -13 0 -18 7 -14 8 5 9 1 4 -11 -5 -15 -4 -16 9 -5 9 7
15 9 14 4 -4 -21 2 -34 16 -34 9 0 12 -6 8 -17 -4 -11 -3 -14 5 -9 7 4 12 1
12 -9 0 -11 5 -15 16 -11 8 3 13 2 10 -3 -3 -5 1 -14 9 -21 8 -7 12 -17 8 -23
-4 -6 0 -8 10 -4 12 4 14 2 10 -10 -4 -11 -2 -14 5 -9 7 4 12 1 12 -8 0 -9 5
-16 11 -16 5 0 7 -5 3 -12 -4 -6 -3 -8 3 -5 6 4 19 -3 29 -15 11 -12 13 -18 5
-13 -10 5 -12 4 -7 -3 4 -7 14 -12 22 -12 8 0 14 -8 14 -19 0 -21 23 -44 34
-33 4 4 7 3 6 -3 -1 -5 -2 -19 -1 -30 1 -17 3 -18 11 -5 8 12 10 10 10 -8 0
-13 4 -21 9 -18 5 3 12 -6 15 -19 4 -14 11 -23 16 -20 6 4 13 0 16 -8 3 -9 19
-14 44 -13 32 0 40 4 40 19 0 13 5 17 14 14 10 -4 13 -1 10 7 -3 7 11 27 31
45 20 17 32 31 29 31 -4 0 8 14 27 31 19 18 27 28 19 24 -8 -4 -6 1 5 12 11
11 24 18 29 15 5 -3 6 0 2 6 -3 6 -2 13 4 17 6 4 7 12 3 18 -4 7 1 6 10 -2 15
-12 17 -12 11 3 -3 9 -1 16 6 16 6 0 8 5 5 10 -3 6 1 10 10 10 9 0 14 4 11 9
-3 5 1 12 10 15 8 3 13 10 9 15 -3 5 0 13 6 17 8 5 9 3 4 -7 -8 -12 -6 -12 9
0 9 8 15 20 12 27 -3 7 2 15 10 18 10 4 13 2 8 -7 -4 -7 -3 -9 2 -4 9 9 10 13
13 42 1 9 7 12 16 8 9 -3 15 -2 14 3 -4 21 2 34 15 34 8 0 17 7 20 16 9 22 8
26 -6 18 -7 -4 -8 -3 -4 5 4 6 12 9 17 6 5 -4 12 1 15 9 3 9 10 16 16 16 5 0
6 -5 2 -12 -5 -7 -2 -9 7 -6 10 4 14 -3 16 -21 1 -24 0 -25 -13 -6 -8 10 -14
14 -14 9 0 -6 6 -16 12 -22 15 -15 17 -44 3 -54 -6 -5 -4 -8 5 -8 13 0 13 -1
0 -10 -12 -8 -12 -10 -1 -10 11 0 11 -3 0 -17 -11 -13 -11 -17 -1 -20 6 -3 12
-11 12 -19 0 -9 -4 -12 -10 -9 -5 3 -10 1 -10 -4 0 -6 5 -11 10 -11 6 0 10 -5
10 -11 0 -5 -3 -8 -7 -6 -5 3 -9 -6 -10 -20 -1 -18 1 -22 8 -12 5 9 7 1 6 -23
-2 -30 -4 -34 -16 -25 -11 9 -13 9 -8 1 4 -7 0 -15 -9 -18 -10 -4 -13 -2 -8 7
5 7 1 6 -10 -2 -15 -12 -19 -13 -26 -1 -7 11 -11 11 -24 1 -15 -12 -20 -8 -17
12 1 5 -3 6 -9 2 -6 -3 -7 -12 -3 -18 4 -7 0 -6 -10 2 -14 11 -18 11 -23 -2
-3 -9 -12 -13 -20 -10 -8 3 -14 0 -14 -6 0 -6 5 -11 10 -11 6 0 10 -5 10 -11
0 -5 -6 -7 -12 -3 -9 5 -9 2 1 -9 11 -14 11 -17 0 -17 -9 0 -10 -3 -4 -8 16
-11 19 -46 3 -36 -10 6 -11 5 -1 -7 10 -12 10 -18 0 -29 -10 -10 -9 -12 4 -7
12 4 15 1 12 -12 -3 -11 2 -21 12 -25 10 -3 14 -2 9 5 -4 8 0 7 15 0 16 -9 21
-9 21 0 0 7 9 6 25 -5 19 -12 23 -13 19 -2 -4 10 3 13 28 10 18 -2 38 -6 45
-8 6 -3 14 0 17 7 2 7 5 5 5 -5 1 -9 5 -19 10 -22 5 -3 8 0 7 7 -1 14 5 17 42
17 22 0 24 -2 12 -11 -12 -9 -12 -10 3 -5 10 3 21 6 23 6 3 0 3 4 -1 9 -3 6 6
7 22 3 16 -4 43 -7 61 -6 17 1 30 -1 27 -5 -2 -4 2 -8 9 -8 9 0 12 7 8 16 -5
14 -3 14 11 2 12 -9 17 -10 17 -2 0 7 5 9 12 5 7 -4 30 -7 51 -5 25 1 36 -2
32 -9 -3 -5 -1 -10 4 -10 6 0 11 7 11 16 0 9 5 12 12 8 6 -4 28 -7 47 -7 30 0
36 3 35 21 0 12 3 22 7 22 10 0 6 34 -6 42 -6 5 -5 8 3 8 10 0 10 5 1 21 -8
15 -8 19 0 15 6 -4 11 -2 11 3 0 6 -6 11 -12 11 -9 0 -8 4 2 10 9 6 11 10 3
10 -7 0 -10 7 -7 15 4 8 11 12 17 8 6 -3 7 -1 3 6 -6 9 -11 9 -22 0 -11 -9
-14 -8 -14 2 0 11 -2 11 -10 -1 -6 -10 -10 -11 -10 -2 0 6 -5 12 -11 12 -5 0
-8 -4 -5 -8 3 -5 -1 -9 -9 -9 -8 0 -15 4 -15 9 0 4 -5 8 -11 8 -5 0 -7 -5 -3
-11 5 -8 1 -8 -13 0 -14 7 -23 7 -31 -1 -9 -9 -12 -9 -12 1 0 7 -4 9 -10 6
-10 -6 -11 -5 -15 31 -1 12 -5 26 -9 32 -3 6 -1 14 5 18 7 4 9 3 5 -4 -3 -6
-2 -13 3 -16 10 -7 9 13 -1 30 -8 12 -6 34 6 53 6 10 5 12 -2 7 -7 -4 -12 -3
-12 3 0 5 5 13 10 16 7 4 8 11 2 18 -5 7 -9 30 -7 52 1 22 -3 49 -8 60 -9 17
-8 18 4 8 11 -9 14 -7 14 12 0 13 -3 21 -7 19 -8 -5 -3 60 6 74 3 6 3 13 -1
15 -5 3 -8 30 -8 61 0 31 -3 56 -8 56 -4 0 -5 5 -2 10 4 6 12 7 18 3 7 -3 3 4
-8 18 -11 13 -16 21 -11 17 5 -4 15 0 23 10 10 11 12 12 8 2 -4 -8 1 -6 10 5
12 14 19 16 22 8 3 -10 9 -9 20 3 10 10 19 12 26 5 5 -5 16 -7 25 -4 9 4 13 2
9 -4 -3 -5 1 -10 9 -10 9 0 13 6 9 15 -4 12 -3 12 9 3 12 -10 14 -7 12 18 -1
16 1 28 5 25 4 -2 10 0 14 6 3 5 0 10 -7 10 -9 0 -9 3 2 10 10 6 11 10 3 10
-7 0 -13 5 -13 11 0 5 4 8 8 5 18 -11 5 45 -15 63 -16 15 -23 17 -33 8 -10 -9
-12 -8 -7 4 4 13 1 16 -16 11 -12 -3 -25 -10 -29 -16 -5 -8 -8 -7 -8 2 0 6 -5
12 -11 12 -5 0 -7 -5 -3 -11 3 -6 -6 -3 -22 7 -26 17 -28 17 -15 1 8 -10 9
-17 3 -17 -6 0 -14 5 -17 10 -3 6 -11 10 -16 10 -6 0 -8 -4 -5 -9 4 -5 -2 -8
-11 -6 -10 2 -22 4 -26 4 -5 1 -6 5 -3 10 7 11 -21 8 -31 -4 -4 -4 -2 -5 5 -1
6 4 12 2 12 -3 0 -14 -17 -14 -25 -1 -4 6 -12 7 -18 3 -18 -11 -47 -11 -47 0
0 6 -3 7 -7 4 -3 -4 -12 -2 -19 4 -8 7 -14 6 -20 -2 -4 -8 -3 -9 4 -5 17 10
15 1 -4 -14 -8 -8 -14 -9 -13 -4 4 21 -2 26 -18 13 -11 -9 -14 -10 -9 -2 14
25 -29 0 -63 -36 -18 -20 -27 -27 -20 -16 13 18 13 19 -3 7 -10 -8 -17 -17
-16 -20 2 -20 -3 -32 -14 -29 -7 1 -13 -5 -13 -13 0 -8 -6 -14 -13 -13 -7 2
-12 -2 -12 -7 0 -12 -42 -56 -51 -53 -4 1 -6 -5 -5 -15 0 -9 -5 -16 -11 -15
-7 2 -13 -4 -13 -13 0 -9 -5 -12 -12 -8 -9 5 -8 2 1 -9 12 -15 12 -17 -3 -11
-10 4 -16 1 -16 -9 0 -9 -5 -19 -12 -23 -7 -5 -8 -3 -3 6 5 9 4 11 -3 6 -7 -4
-12 -14 -12 -22 0 -8 -4 -12 -10 -9 -5 3 -10 -3 -10 -14 0 -12 -3 -20 -7 -20
-20 3 -26 -2 -13 -11 13 -8 12 -10 -5 -11 -11 -1 -23 -1 -27 0 -4 0 -5 -5 -2
-13 3 -7 -9 -25 -26 -40 -17 -14 -28 -30 -25 -36 4 -6 1 -9 -7 -8 -7 2 -12 -3
-11 -9 2 -7 -4 -13 -12 -13 -8 0 -15 -7 -15 -15 0 -8 -5 -15 -11 -15 -6 0 -9
-7 -5 -15 3 -8 1 -14 -4 -12 -5 1 -16 -7 -25 -18 -14 -17 -16 -18 -11 -2 4 12
2 16 -5 11 -6 -4 -15 0 -20 7 -7 12 -9 11 -10 -1 0 -8 -4 -4 -8 10 -4 14 -13
24 -19 23 -7 -2 -9 4 -5 14 4 11 3 14 -5 9 -7 -4 -12 -2 -12 6 0 7 -9 19 -20
26 -11 7 -20 17 -20 22 0 6 -16 27 -35 48 -57 61 -64 70 -57 78 4 4 2 4 -4 1
-7 -4 -18 1 -25 10 -10 12 -10 14 -1 9 6 -4 12 -2 12 3 0 6 -9 11 -21 11 -15
0 -19 5 -15 16 3 8 2 13 -2 11 -9 -6 -33 19 -25 27 4 3 -1 6 -10 6 -16 0 -22
12 -18 34 1 5 -6 3 -15 -5 -16 -13 -16 -12 -5 8 9 18 9 22 -2 17 -18 -6 -51
31 -44 51 4 8 3 14 -1 14 -20 -3 -28 4 -41 32 -10 23 -16 28 -22 18 -7 -11 -9
-11 -9 2 0 9 -8 23 -17 30 -14 12 -16 12 -9 -1 5 -9 2 -8 -7 2 -11 14 -16 15
-27 5 -8 -8 -11 -8 -7 -1 4 7 0 15 -9 18 -8 3 -12 2 -9 -3 3 -5 1 -12 -5 -16
-5 -3 -10 -2 -10 4 0 5 -12 7 -27 4 -16 -3 -37 -5 -48 -4 -31 3 -38 3 -73 -2
-26 -4 -30 -2 -21 9 16 19 4 18 -15 -2z"/>
<path d="M1726 2793 c-6 -14 -5 -15 5 -6 7 7 10 15 7 18 -3 3 -9 -2 -12 -12z"/>
<path d="M1725 2531 c-3 -5 -2 -12 3 -15 5 -3 9 1 9 9 0 17 -3 19 -12 6z"/>
<path d="M2556 2141 c-14 -15 -15 -21 -4 -27 7 -4 10 -3 5 1 -4 5 0 17 10 27
9 10 14 18 11 18 -3 0 -13 -9 -22 -19z"/>
<path d="M2896 2062 c-3 -5 1 -9 9 -9 8 0 12 4 9 9 -3 4 -7 8 -9 8 -2 0 -6 -4
-9 -8z"/>
<path d="M2835 1270 c-3 -5 -2 -10 4 -10 5 0 13 5 16 10 3 6 2 10 -4 10 -5 0
-13 -4 -16 -10z"/>
<path d="M3856 4037 c3 -10 9 -15 12 -12 3 3 0 11 -7 18 -10 9 -11 8 -5 -6z"/>
<path d="M3113 3925 c0 -8 4 -15 9 -15 4 0 8 4 8 9 0 6 -4 12 -8 15 -5 3 -9
-1 -9 -9z"/>
<path d="M1266 1607 c3 -10 9 -15 12 -12 3 3 0 11 -7 18 -10 9 -11 8 -5 -6z"/>
<path d="M516 1413 c-6 -14 -5 -15 5 -6 7 7 10 15 7 18 -3 3 -9 -2 -12 -12z"/>
<path d="M1856 1262 c-3 -5 1 -9 9 -9 8 0 12 4 9 9 -3 4 -7 8 -9 8 -2 0 -6 -4
-9 -8z"/>
<path d="M4135 1120 c-3 -5 -1 -10 4 -10 6 0 11 5 11 10 0 6 -2 10 -4 10 -3 0
-8 -4 -11 -10z"/>
<path d="M2515 180 c-3 -5 -1 -10 4 -10 6 0 11 5 11 10 0 6 -2 10 -4 10 -3 0
-8 -4 -11 -10z"/>
<path d="M3907 4169 c7 -7 15 -10 18 -7 3 3 -2 9 -12 12 -14 6 -15 5 -6 -5z"/>
<path d="M4035 4090 c-3 -5 -1 -10 4 -10 6 0 11 5 11 10 0 6 -2 10 -4 10 -3 0
-8 -4 -11 -10z"/>
<path d="M325 1720 c3 -5 8 -10 11 -10 2 0 4 5 4 10 0 6 -5 10 -11 10 -5 0 -7
-4 -4 -10z"/>
<path d="M2196 167 c3 -10 9 -15 12 -12 3 3 0 11 -7 18 -10 9 -11 8 -5 -6z"/>
</g>
</svg>
